<svg width="66" height="61" viewBox="0 0 66 61" fill="none" xmlns="http://www.w3.org/2000/svg">
<path d="M37.096 51.7367C39.7906 48.5717 43.8485 47.1845 48.0658 47.7505C49.0703 43.3737 52.2513 40.0891 56.5085 38.686C53.8458 34.1099 54.3161 28.7924 57.7921 24.8142C53.1442 22.287 50.6887 17.4079 51.8846 12.1541C47.3324 10.7112 44.271 6.70906 44.4783 1.90176C44.5181 0.968997 45.2596 0.283378 46.1206 0.195683C49.3733 -0.274683 52.3549 0.681994 54.7068 2.78668C57.0586 4.89137 58.2066 7.66574 57.9515 10.9025C63.6916 13.5334 66.2507 20.0946 63.6836 25.8506C66.9443 31.0884 65.86 38.0721 60.7498 41.9068C61.2521 48.8108 56.1737 54.519 49.2458 54.527C46.288 59.6771 40.0537 61.8934 34.6724 59.6532C34.2737 56.7512 35.1507 54.0167 37.096 51.7207V51.7367ZM55.4243 9.76245C55.0018 5.36174 51.3903 2.46779 47.2287 2.77074C47.5078 7.0997 51.2388 10.2727 55.4243 9.76245ZM54.6111 12.6564C53.4073 17.8543 56.8593 22.3109 61.8978 23.2755C63.1335 17.9739 59.6815 13.5812 54.6111 12.6564ZM60.391 38.981C64.2098 35.2101 64.0663 29.5338 60.3751 26.0738C56.6121 29.5418 56.5165 35.529 60.391 38.981ZM57.2739 41.1654C52.5304 42.2815 49.6284 47.1446 50.8801 51.8084C59.0198 50.4053 59.7214 40.5914 57.2739 41.1654ZM48.0738 50.2219C42.7483 49.1217 38.0367 52.8289 37.3989 57.676C42.4772 58.8559 47.452 55.2923 48.0738 50.2219Z" fill="#FFA001"/>
<path d="M30.9972 57.9886C31.1486 59.1446 30.6703 59.8382 29.7854 60.0853C24.4519 61.5921 18.959 59.2323 16.2324 54.5207C9.38421 54.2576 4.11452 48.7647 4.82405 41.9802C-0.198503 38.3847 -1.55376 31.385 1.97 26.0755C-0.429664 20.2796 1.96995 13.7662 7.70204 10.9759C7.67813 7.52391 8.85805 4.42268 11.3614 2.44555C13.8647 0.468413 17.3167 -0.663655 20.8006 0.420579C21.8529 5.43516 18.7836 10.5135 13.6255 11.9884C14.8453 17.1704 12.3579 22.169 7.61436 24.7999C11.0903 28.6107 11.5527 34.287 8.81021 38.7514C13.203 40.0111 16.3201 43.2717 17.2449 47.8239C23.846 46.5802 30.2238 51.0607 30.9892 57.9886H30.9972ZM18.4009 2.66877C13.9045 2.23029 10.6757 5.61055 10.325 9.81993C14.5264 9.97141 18.098 6.98976 18.4009 2.66877ZM4.09061 23.2692C9.29653 22.2966 12.4456 17.4973 11.1461 12.5544C6.14745 13.2719 2.69546 18.1271 4.09061 23.2692ZM5.42996 38.9986C9.38422 35.3233 9.20085 29.4318 5.37414 26.0834C1.6431 29.7587 1.7308 35.5785 5.42996 38.9986ZM14.6539 51.8021C15.8418 46.5404 12.7087 42.2832 7.47885 41.0634C6.23517 46.2534 9.34437 50.5026 14.6539 51.8021ZM28.2547 57.606C27.4176 52.4957 22.6502 49.2749 17.6037 50.2635C18.5125 55.3578 23.3278 58.9612 28.2547 57.606Z" fill="#FFA001"/>
<path d="M32.5443 39.9806L26.7325 43.1057C25.9592 43.5203 24.6038 43.2253 23.9979 42.6593C23.3442 42.0454 23.1768 41.0329 23.3442 40.0364L24.3328 34.113L19.6531 29.497C19.1269 28.9788 18.9913 27.5358 19.3182 26.8103C19.5893 26.2124 20.5539 25.5108 21.3512 25.3992L27.5536 24.5302L30.5034 18.6387C30.7983 18.0487 31.8028 17.4588 32.3768 17.387C33.0784 17.2994 34.4098 17.698 34.7287 18.3358L37.8219 24.4904L44.3592 25.471C45.0768 25.5826 45.9856 26.4755 46.1929 27.1053C46.4081 27.767 46.0892 28.923 45.5312 29.4571L40.6122 34.1608L41.7124 41.2402C41.8081 41.8541 40.8993 42.8187 40.3651 43.034C39.7911 43.2731 38.6351 43.2971 38.0611 42.9861L32.5443 39.9806ZM34.5453 37.7722L39.4802 40.427L38.4278 34.5435C38.4837 33.9535 38.667 33.0686 38.8344 32.5823L43.6098 27.9105L37.3356 26.9379C36.8892 26.8661 36.068 26.2124 35.8368 25.8696L32.9827 20.1534L30.2164 25.758C29.7938 26.316 28.9567 26.8661 28.2711 27.0335L22.2999 27.8946L27.139 32.7337C27.2506 33.1164 27.4101 34.1289 27.3304 34.5993L26.3578 40.4111L31.3883 37.7244C32.2812 37.2461 33.5647 37.2461 34.5374 37.7722H34.5453Z" fill="#FFA001"/>
<path d="M43.3302 19.0274C43.0512 19.2985 41.9032 19.2427 41.6242 18.9875C41.3053 18.6926 41.1538 17.6163 41.4886 17.2815L44.7891 13.957C45.124 13.6222 46.2241 13.6541 46.567 13.9331C46.9417 14.244 47.0294 15.3601 46.6467 15.7348L43.3302 19.0274Z" fill="#FFA001"/>
<path d="M24.0528 16.9456C24.4116 17.2964 24.4036 18.3726 24.0768 18.7473C23.7499 19.122 22.6737 19.2177 22.291 18.835L19.0781 15.6222C18.7433 15.2874 18.7752 14.1792 19.0622 13.8364C19.3811 13.4617 20.4733 13.39 20.848 13.7567L24.0528 16.9536V16.9456Z" fill="#FFA001"/>
<path d="M34.0906 13.2577C34.1146 14.2941 33.6841 14.916 32.9347 14.9797C32.3606 15.0276 31.6112 14.4456 31.6192 13.752L31.6591 9.22372C31.6591 8.83308 32.3128 8.29096 32.6556 8.20327C32.9985 8.11557 33.987 8.53013 33.995 8.92078L34.0906 13.2497V13.2577Z" fill="#FFA001"/>
<path d="M32.8709 5.81612C33.5666 5.81612 34.1306 5.25217 34.1306 4.5565C34.1306 3.86083 33.5666 3.29688 32.8709 3.29688C32.1752 3.29688 31.6113 3.86083 31.6113 4.5565C31.6113 5.25217 32.1752 5.81612 32.8709 5.81612Z" fill="#FFA001"/>
</svg>
