<svg width="71" height="61" viewBox="0 0 71 61" fill="none" xmlns="http://www.w3.org/2000/svg">
<path d="M39.7738 15.4184L39.8137 2.11266H10.922L10.8742 10.946L2.06483 10.9619V57.5521H39.8855V47.5229H41.9901V59.6488H0V9.35152L9.31961 0H41.9822V15.4025C47.22 16.0642 51.4453 19.588 53.2949 23.8691C55.575 29.1468 54.5465 34.7593 51.0387 39.0005L55.6866 43.6564L57.8869 41.4959L70.0447 53.9885C71.5515 55.5351 70.7861 58.2856 69.3272 59.4894C67.653 60.8686 65.2852 60.8526 63.611 59.1625L51.9794 47.3874L54.1081 45.2508L49.3884 40.5551C45.6415 43.752 40.8979 44.924 36.266 43.5846C29.3859 41.5995 24.9214 35.134 25.7505 28.1024C26.5797 21.0708 32.1922 15.5779 39.7579 15.4105L39.7738 15.4184ZM8.85722 8.84129L8.73764 3.45998L3.57158 8.72171L8.85722 8.84129ZM52.4259 29.6171C52.4259 22.8407 46.933 17.3557 40.1565 17.3557C33.3801 17.3557 27.8871 22.8486 27.8871 29.6171C27.8871 36.3856 33.3801 41.8785 40.1565 41.8785C46.933 41.8785 52.4259 36.3856 52.4259 29.6171ZM65.7078 58.0703C66.3615 58.724 68.0357 58.0384 68.4104 57.4246C68.8329 56.7389 68.9445 55.2641 68.2509 54.5784L57.8152 44.2942L54.9451 47.3715L65.7078 58.0623V58.0703Z" fill="#1EABDA"/>
<path d="M24.3637 15.4883H8.80176V17.585H24.3637V15.4883Z" fill="#1EABDA"/>
<path d="M24.3715 37.5586H8.80957V39.6394H24.3715V37.5586Z" fill="#1EABDA"/>
<path d="M24.3636 26.4922H8.80957V28.5012H24.3636V26.4922Z" fill="#1EABDA"/>
<path d="M19.923 30.918H8.80957V33.0147H19.923V30.918Z" fill="#1EABDA"/>
<path d="M19.9218 19.8618L8.80859 19.9297L8.82082 21.9307L19.934 21.8628L19.9218 19.8618Z" fill="#1EABDA"/>
<path d="M17.6271 42.0859H8.80176V44.1667H17.6271V42.0859Z" fill="#1EABDA"/>
<path d="M45.6339 28.0056C45.9209 30.7082 45.3549 32.7172 43.322 34.1363C41.6159 35.3322 39.1285 35.4916 37.2231 34.0964C35.4214 32.773 34.5285 30.7162 35.0068 28.0375L32.2404 30.2857L30.6221 29.05C31.9774 27.7824 33.0058 26.7221 34.4886 25.7813C38.132 23.4853 43.1864 23.6129 46.5428 26.2995L49.8593 28.9623L48.4322 30.3016L45.6339 27.9976V28.0056ZM43.6329 29.7117C43.6329 27.8302 42.1102 26.3075 40.2287 26.3075C38.3473 26.3075 36.8245 27.8302 36.8245 29.7117C36.8245 31.5931 38.3473 33.1158 40.2287 33.1158C42.1102 33.1158 43.6329 31.5931 43.6329 29.7117Z" fill="#1EABDA"/>
</svg>
