<svg width="61" height="61" viewBox="0 0 61 61" fill="none" xmlns="http://www.w3.org/2000/svg">
<path d="M9.56263 2.15205C11.4919 0.206804 14.7048 0.980119 16.3949 2.94131C18.2285 5.06194 19.8469 3.08481 21.5052 4.91844C22.2705 5.7635 22.3263 7.14271 22.0074 8.52192L24.9093 11.4159C26.3284 11.0651 27.4047 11.1608 28.4171 11.9102C30.5139 13.4727 28.4172 16.0079 30.179 16.5261L36.3097 10.4353C36.5091 10.236 37.3142 10.0606 37.4179 10.3077C37.5215 10.5549 37.6491 11.097 37.7049 11.4797L31.3191 17.8575L42.6876 29.2021L43.5167 28.2773L40.8858 25.6385C40.6626 25.4152 40.551 24.626 40.7583 24.4028C41.0054 24.1397 41.8186 24.1237 42.1056 24.347L45.1032 26.7546L46.2432 25.6943L43.5486 22.9996C43.3493 22.8003 43.2855 22.1307 43.421 21.8835C43.5805 21.5965 44.5372 21.5327 44.7923 21.7958L47.455 24.4586L48.5154 23.3903L45.8526 20.7435C45.6055 20.4963 45.741 19.5875 45.9961 19.4041C46.2512 19.2208 46.9129 19.3802 47.1521 19.6194L49.7112 22.1944L50.7795 21.1341L46.299 16.6457C46.0679 16.4145 46.02 15.7528 46.1715 15.5296C46.3469 15.2585 47.2557 15.1947 47.4949 15.4339L52.0232 19.9303L58.1698 13.8315C58.8235 13.1857 59.0228 12.0058 58.3133 11.2883L49.5358 2.48689C48.9857 1.9368 47.7819 1.58601 47.1361 2.19988L40.1763 8.88865C39.9292 9.12782 39.2515 9.35104 38.9565 9.29524C38.6058 9.23146 38.3427 8.23492 38.6376 7.94792L45.454 1.10768C46.6179 -0.064254 49.0894 -0.502731 50.357 0.772839L59.7404 10.1722C61.0159 11.4478 60.5854 13.8554 59.3816 15.0592L44.0349 30.4219L56.384 42.8188L59.3338 54.1793C59.7483 56.6268 57.548 59.9672 54.7417 59.4889C50.5961 58.7873 46.8491 57.5516 42.6955 56.4913L37.6491 51.4688C37.4578 51.2854 37.4498 50.4882 37.5534 50.2729C37.689 50.0019 38.6695 49.962 38.9007 50.2012L42.2571 53.5336L42.4723 49.1408L48.3718 48.7183L48.6828 43.7037C48.7067 43.3211 49.3046 42.6673 49.6634 42.6434L53.3306 42.3803L27.8511 16.9726L16.6899 28.2056L36.3097 47.7935C36.3576 48.1762 36.3815 48.6864 36.3416 48.9734C36.3018 49.2604 35.4168 49.3322 35.1458 49.0611L30.2667 44.206L14.912 59.5527C13.6684 60.7964 11.3245 61.2428 9.98516 59.9114L0.904717 50.823C-0.346936 49.5634 -0.283169 47.1876 0.992401 45.9121L16.2833 30.5654C16.5623 30.2863 15.4781 29.5449 15.0874 29.6485C13.772 29.9993 12.5523 29.6326 11.7391 28.6998C10.9737 27.8309 10.8063 26.5792 11.2528 25.2L8.38275 22.322C6.93179 22.6409 5.67215 22.6329 4.60386 21.6284C3.85446 20.9189 3.51166 19.452 3.91825 18.2242C3.78272 17.8256 3.23262 17.0842 2.88183 16.7972C0.641615 14.9715 0.139364 11.7029 2.18825 9.6221L9.55468 2.16799L9.56263 2.15205ZM3.38409 14.541L5.32934 16.5899L16.3949 5.53231L14.6968 3.7784C13.3814 2.42311 11.3405 2.98914 10.1207 4.21688L3.77475 10.6027C2.86591 11.5195 2.41147 13.5206 3.38409 14.541ZM7.76886 20.1934L20.118 7.84428C20.4608 7.50944 20.4209 6.56074 20.2057 6.20198C19.9904 5.84323 18.7627 5.58014 18.4597 5.88309L5.87145 18.4554C5.40906 18.9178 5.57649 20.01 6.03889 20.3449C6.3817 20.592 7.32243 20.6319 7.76091 20.1854L7.76886 20.1934ZM20.8594 9.82141L9.67426 21.0145L12.5522 23.8925L23.7374 12.6994L20.8594 9.82141ZM15.0396 27.4482L27.6917 14.7961C27.7873 14.3098 27.6917 13.4887 27.3648 13.2814C27.0379 13.0741 26.2088 13.0502 25.7145 13.1379L13.1422 25.7182C12.7516 26.2763 12.8313 27.2489 13.3335 27.6156C13.6764 27.8627 14.4497 27.791 15.0396 27.4482ZM18.7069 47.8174L21.3059 50.4244L22.3502 49.4837L19.6795 46.7571C19.4324 46.502 19.4164 45.633 19.7114 45.4337C19.9665 45.2663 20.6999 45.3141 20.971 45.5772L23.6736 48.1762L24.7818 47.1637L22.1669 44.5568C21.9436 44.3335 21.7683 43.6559 21.9596 43.4008C22.1509 43.1457 23.0438 43.0101 23.283 43.2573L25.9697 45.9599L26.9662 44.8358L22.5176 40.3474C22.2625 40.0923 22.2785 39.2153 22.5176 39.0957C22.7568 38.9761 23.6019 39.008 23.8251 39.2233L28.2178 43.616L29.0151 42.8826L17.7343 31.5938L2.41147 46.7013C1.70991 47.3949 1.64614 48.6625 2.3477 49.3641L11.4441 58.4764C11.8427 58.875 13.1023 58.8591 13.477 58.4764L15.3904 56.5232L10.886 52.0268C10.6867 51.8275 10.6389 51.1897 10.7346 50.9346C10.8302 50.6795 11.7789 50.5201 12.0181 50.7592L16.5623 55.2476L17.6466 54.2431L14.92 51.4767C14.6968 51.2535 14.8403 50.3207 15.0874 50.2012C15.3346 50.0816 15.9564 50.1454 16.2195 50.4084L18.8584 53.0234L20.0064 51.6681L17.3596 48.9734C17.1284 48.7343 17.1602 47.7935 17.4313 47.6739C17.6545 47.5783 18.5156 47.5862 18.7228 47.7935L18.7069 47.8174ZM44.0508 55.0722L49.9025 56.5551L56.5275 49.9221L55.0526 43.9987L50.7476 44.3335L50.2055 50.2809L44.298 50.7114L44.0588 55.0802L44.0508 55.0722ZM54.941 57.8307C56.7826 57.7589 57.9705 56.1644 57.54 54.4584L57.0059 52.3138L52.1268 57.145L54.941 57.8307Z" fill="#01D183"/>
<path d="M53.1954 10.9126C53.1954 12.81 51.6567 14.3487 49.7593 14.3487C47.8619 14.3487 46.3232 12.81 46.3232 10.9126C46.3232 9.01522 47.8619 7.47656 49.7593 7.47656C51.6567 7.47656 53.1954 9.01522 53.1954 10.9126ZM51.3777 10.9047C51.3777 10.0038 50.6522 9.2783 49.7513 9.2783C48.8505 9.2783 48.125 10.0038 48.125 10.9047C48.125 11.8055 48.8505 12.531 49.7513 12.531C50.6522 12.531 51.3777 11.8055 51.3777 10.9047Z" fill="#01D183"/>
</svg>
