<svg width="71" height="61" viewBox="0 0 71 61" fill="none" xmlns="http://www.w3.org/2000/svg">
<path d="M58.8447 46.9085L57.0349 46.6135L48.6879 49.9858C48.8314 52.1942 47.8588 53.8843 46.0092 54.841C45.9215 56.4035 45.4272 58.1415 44.2633 58.9387C42.7486 59.9672 41.1621 59.9193 39.5437 59.146C38.4515 59.9114 37.0882 60.6368 35.4539 60.2223C34.2899 59.9273 33.1738 58.9068 32.4483 57.5515C30.3994 57.8226 28.5339 56.9058 27.7367 54.8808C25.648 55.12 23.7505 54.2111 22.8895 52.2101C21.614 52.1862 20.2347 52.0188 19.3179 51.2136C18.3453 50.3685 17.8909 49.085 17.8271 47.5383L13.3786 46.2309L11.6007 46.765L0.766368 43.7913C0.224251 43.6399 -0.158424 42.5078 0.0648009 42.0055C0.288026 41.5033 1.16498 41.1445 1.78682 41.304L11.0347 43.6797L16.998 21.7798L7.88564 19.4439C7.23191 19.2765 6.67385 18.3597 6.79343 17.8096C6.96882 16.9884 7.89361 16.6137 8.72273 16.837L18.7519 19.5475C19.1027 19.6432 19.9238 20.0179 19.9158 20.3607L19.8361 22.298L27.1707 19.8983C28.5419 19.4519 30.4552 19.4678 31.667 20.2013L35.7409 22.6408C37.2636 21.0145 38.882 19.986 40.8671 19.3801C43.8567 17.9053 47.1413 18.2241 49.82 20.2651L50.5216 20.5919C50.7129 20.6796 51.0238 20.1774 51.2072 19.8824L62.7351 16.8051C63.1338 16.7014 63.8433 17.4827 63.931 17.8734C64.0187 18.264 63.7237 19.3084 63.2613 19.428L53.567 21.9711L59.4744 43.6957L69.384 41.1764C69.8305 41.0648 70.5799 41.8939 70.5799 42.3005C70.5799 42.7549 70.1255 43.7754 69.6551 43.9109L58.8287 46.9165L58.8447 46.9085ZM41.2019 50.4243L43.9045 52.0108C44.4068 52.3058 45.5229 51.7955 45.7063 51.2136C45.8577 50.7193 45.5149 49.8662 45.0207 49.5713L39.4799 46.2388C38.7943 45.8243 38.6189 44.8198 39.2328 44.19C39.6394 43.7754 40.4206 43.7196 41.0265 44.0544L46.2006 46.9005C46.7825 47.2194 47.6595 47.2832 48.098 47.0042C48.5364 46.7252 48.8394 45.1626 48.4009 44.8915L42.4057 41.2641C41.768 40.8735 41.5527 39.9646 41.8477 39.5341C42.2622 38.9123 43.1631 38.6014 43.769 38.9601L49.5649 42.4281C49.9715 42.6752 50.976 42.2367 51.1992 41.8541C51.4224 41.4714 51.255 40.3553 50.8644 40.1241L45.1084 36.7358C44.5503 36.409 44.2872 35.3885 44.5662 34.974C44.8453 34.5594 45.8577 34.105 46.2404 34.3362L52.3711 37.9795C53.7982 38.8326 54.42 40.5944 54.133 42.1012C53.846 43.608 52.698 44.2856 51.263 45.7685L56.5805 43.8232L51.8131 24.0678L45.9375 21.0623C45.1562 20.6637 39.9822 21.8675 38.1645 24.7933L34.2899 31.0197C33.9312 31.6017 34.4175 32.9251 34.9437 33.1961C35.5575 33.5071 36.5939 33.4433 37.144 32.8932L43.9922 26.0609C44.5822 25.471 45.6505 25.5666 46.0331 26.029C46.5195 26.619 46.5274 27.5517 45.9933 28.062L38.1007 35.6197C36.6338 37.0229 34.0268 36.2336 32.8151 35.0218C31.6033 33.81 30.8539 31.6575 31.8424 29.9355L34.7922 24.7933L31.2525 22.7046C30.4473 22.2342 29.1717 22.1226 28.2868 22.4415L19.2382 25.7022L14.399 43.6478L19.1983 45.0271C20.8566 43.5681 21.1595 40.9133 24.4441 41.1764C26.0147 41.304 27.4337 42.3643 28.1273 44.0465C30.2878 43.7754 32.0178 44.7959 32.7513 46.7331C34.8958 46.494 36.6976 47.3789 37.3513 49.3241C38.7305 49.4198 40.038 49.7467 41.2099 50.4403L41.2019 50.4243ZM23.3758 48.7023L25.058 45.7844C25.2972 45.3699 25.2414 44.3893 24.8985 44.1023C24.5557 43.8153 23.2881 43.7834 23.033 44.1979L21.0559 47.4347C20.7211 47.9848 21.024 48.9893 21.5342 49.3162C22.0445 49.643 23.041 49.2843 23.3758 48.7103V48.7023ZM28.0396 51.7716L29.945 48.2798C30.248 47.7217 29.6979 46.5737 29.1797 46.4621C28.7332 46.3664 27.7207 46.6375 27.4656 47.0759L25.64 50.217C25.3689 50.6794 25.7277 51.7397 26.1343 52.0347C26.493 52.2978 27.7925 52.2181 28.0396 51.7716ZM32.9984 54.1314L34.8161 50.7432C35.0314 50.3446 34.1783 49.4517 33.7319 49.4198C33.3173 49.3959 32.4643 49.651 32.249 50.0257L30.6386 52.7602C30.2719 53.382 30.4313 54.3467 30.9575 54.7134C31.6033 55.1599 32.6157 54.825 32.9904 54.1314H32.9984ZM37.447 57.3044L39.4321 53.9082C39.6872 53.4777 39.3364 52.2898 38.9298 52.1224C38.579 51.9789 37.5347 52.1304 37.3274 52.4652L35.5974 55.2555C35.2227 55.8614 35.2147 56.6666 35.4698 57.1051C35.8126 57.703 37.0882 57.9183 37.447 57.3044ZM41.1302 56.8659C42.0071 57.0015 42.8363 56.6826 43.0435 56.1086C43.203 55.6541 42.9319 54.8649 42.5971 54.4105L41.1302 56.8659Z" fill="#9789FA"/>
<path d="M36.6494 12.987C36.6494 13.6168 35.5412 14.1829 35.039 14.0553C34.441 13.9038 33.875 13.1863 33.875 12.5326V6.33015C33.875 5.72425 34.4729 4.96688 35.031 4.8473C35.5013 4.75163 36.6254 5.2778 36.6254 5.76411L36.6414 12.995L36.6494 12.987Z" fill="#9789FA"/>
<path d="M47.2206 13.5128C46.9974 13.8875 45.8653 14.0948 45.4667 13.9832C45.0681 13.8716 44.526 12.9229 44.7253 12.5641L47.6989 7.39011C47.9301 6.99149 49.1419 7.16688 49.413 7.49375C49.684 7.82061 50.0428 8.8012 49.7717 9.25563L47.2206 13.5128Z" fill="#9789FA"/>
<path d="M25.76 12.3968C25.9912 12.7954 25.5368 13.9434 25.186 14.1586C24.7874 14.4058 23.7271 14.1108 23.456 13.6484L20.7853 9.23972C20.5382 8.82516 20.9447 7.78079 21.3434 7.53365C21.8695 7.21475 22.8661 7.44595 23.2169 8.05982L25.7521 12.3968H25.76Z" fill="#9789FA"/>
<path d="M7.30401 39.8522C8.06573 39.8522 8.68322 39.2347 8.68322 38.473C8.68322 37.7112 8.06573 37.0938 7.30401 37.0938C6.54229 37.0938 5.9248 37.7112 5.9248 38.473C5.9248 39.2347 6.54229 39.8522 7.30401 39.8522Z" fill="#9789FA"/>
<path d="M35.2865 2.66275C36.0218 2.66275 36.6178 2.06667 36.6178 1.33138C36.6178 0.596077 36.0218 0 35.2865 0C34.5512 0 33.9551 0.596077 33.9551 1.33138C33.9551 2.06667 34.5512 2.66275 35.2865 2.66275Z" fill="#9789FA"/>
<path d="M63.2453 39.7249C63.9762 39.7249 64.5687 39.1324 64.5687 38.4015C64.5687 37.6706 63.9762 37.0781 63.2453 37.0781C62.5144 37.0781 61.9219 37.6706 61.9219 38.4015C61.9219 39.1324 62.5144 39.7249 63.2453 39.7249Z" fill="#9789FA"/>
</svg>
