<svg width="57" height="61" viewBox="0 0 57 61" fill="none" xmlns="http://www.w3.org/2000/svg">
<path d="M50.289 46.8692L48.6945 45.769C48.4314 45.5857 48.1125 44.9798 48.1524 44.6688C48.2002 44.2862 49.0134 43.7839 49.3801 43.9354L51.3174 44.7326C53.0872 41.3603 54.1077 37.9083 54.1954 34.1773L52.2023 34.1215C51.8914 34.1135 51.3493 33.6192 51.2696 33.3163C51.1819 32.9575 51.7798 32.2241 52.1784 32.2241L54.1795 32.2081C53.9084 28.5329 53.0793 25.0649 51.3174 21.6368L49.6751 22.4979C49.3801 22.6573 48.5271 22.466 48.2959 22.2268C48.0248 21.9478 48.2241 21.0549 48.5829 20.8396L50.289 19.7952C48.2241 16.702 45.8005 14.2067 42.5399 12.0462L41.5991 13.537C41.4158 13.824 40.7381 14.2146 40.3953 14.1668C40.0047 14.111 39.5742 13.25 39.7655 12.8753L40.6903 11.0098C37.4137 9.35152 34.2088 8.2912 30.3741 8.10784L30.1828 10.2524C30.1509 10.5872 29.4653 11.0815 29.1384 11.0257C28.8116 10.9699 28.2854 10.3082 28.2854 9.98133V7.97231L23.4303 8.65793C23.0157 8.71373 22.3062 8.33904 22.2264 7.94839C22.1547 7.58964 22.6729 6.81632 23.0396 6.76052L26.1568 6.25029L26.2285 5.21389C26.2604 4.79933 22.7526 5.92343 22.1706 2.94975C21.9394 1.7858 22.8084 0 24.4427 0H34.0494C35.5801 0 36.3773 1.61041 36.2497 2.75842C36.0743 4.36085 34.8865 5.15808 33.1804 5.07836L32.431 5.04647C32.2237 5.0385 32.1998 5.66034 32.1839 6.2184C37.9159 6.9678 43.1298 9.22396 47.4907 13.2659L49.8664 11.2728L48.3597 9.72622L52.6169 5.54075L56.898 9.80594L52.6727 14.0711L51.1978 12.5883L49.0134 14.8046C57.1212 23.3349 58.1018 36.6009 52.5053 46.7815C46.9087 56.9622 34.7828 62.3993 23.1991 59.8242C22.6968 59.7126 22.2424 59.1944 22.2185 58.748C22.1945 58.3015 22.8722 57.8072 23.3346 57.863L28.2694 58.4769V56.6672C28.2694 56.2845 28.7557 55.567 29.1225 55.5271C29.6726 55.4713 30.2864 56.141 30.2785 56.6353L30.2466 58.3653C33.9218 58.1739 37.4057 57.3368 40.7302 55.4793L39.7815 53.8131C39.622 53.5261 39.8054 52.7687 40.0206 52.5455C40.2757 52.2904 41.1766 52.41 41.3839 52.7368L42.5319 54.5226C45.665 52.394 47.9212 50.0661 50.265 46.8293L50.289 46.8692ZM30.2386 5.9872L30.2705 3.02151H33.7464C33.9617 3.02151 34.3045 2.31197 34.1131 2.24819C33.9856 2.20833 33.5391 2.04888 33.3558 2.04888L24.2913 2.13658L24.371 2.94975L28.1817 3.06934L28.2376 5.97126L30.2306 5.99518L30.2386 5.9872ZM52.6567 8.33904L51.2138 9.79L52.6488 11.217L54.0918 9.76608L52.6567 8.33904Z" fill="#FFA001"/>
<path d="M32.8455 36.9053C31.3786 38.6831 29.1144 38.7469 27.5439 37.4952C25.8856 36.1718 25.766 33.804 27.3047 32.1298L40.8098 22.3398L42.0136 22.4275C42.3485 22.4515 42.3644 23.44 42.2847 23.8067L32.8375 36.9053H32.8455ZM30.7408 35.8051L36.3533 28.04L28.8274 33.3735C28.1259 33.8678 28.1179 35.2072 28.5643 35.7413C28.9231 36.1718 30.3262 36.3871 30.7487 35.7971L30.7408 35.8051Z" fill="#FFA001"/>
<path d="M21.007 35.3164H0V37.2935H21.007V35.3164Z" fill="#FFA001"/>
<path d="M20.6481 30.2452H4.71945C4.47231 29.99 4.11355 29.424 4.10558 29.129C4.09761 28.8341 4.51217 28.3796 4.81512 28.1644L19.8908 28.1484C20.2814 28.2441 20.7996 28.4594 20.983 28.6826C21.2142 28.9536 20.9909 29.8705 20.6402 30.2372L20.6481 30.2452Z" fill="#FFA001"/>
<path d="M20.0586 44.3326H6.88835C6.53757 44.1732 6.0114 43.6709 5.99545 43.344C5.97951 43.0172 6.53757 42.499 6.88038 42.3555H19.9151C20.2818 42.3555 20.9276 42.786 21.0312 43.1049C21.1668 43.5035 20.6167 44.3326 20.0506 44.3326H20.0586Z" fill="#FFA001"/>
<path d="M20.5128 23.1184H9.98139C9.55885 23.1184 9.02471 22.4567 9.04863 22.1298C9.07254 21.7073 9.69438 21.1094 10.1807 21.1094H19.891C20.1939 21.1094 20.8556 21.4602 20.9672 21.7153C21.1028 22.0262 20.8556 22.6719 20.5128 23.1104V23.1184Z" fill="#FFA001"/>
<path d="M20.6407 51.2286L13.2424 51.3163C12.78 51.3163 12.206 50.6546 12.2139 50.2959C12.2219 49.9371 12.8278 49.3711 13.2583 49.3711L20.0746 49.387C20.3537 49.387 20.824 49.69 21.0233 49.8175C21.2625 49.985 20.9915 51.2207 20.6407 51.2286Z" fill="#FFA001"/>
<path d="M20.2573 16.0898H15.1071C14.7643 16.0977 14.1584 15.5158 14.1505 15.1809C14.1425 14.7106 14.7564 14.1445 15.2825 14.1445L20.2014 14.1764C20.4964 14.1764 21.0545 14.6707 21.1422 14.9418C21.2538 15.2766 20.6718 16.0818 20.2493 16.0898H20.2573Z" fill="#FFA001"/>
</svg>
