<svg width="64" height="64" viewBox="0 0 64 64" fill="none" xmlns="http://www.w3.org/2000/svg">
<path d="M63.5473 61.5852L63.4357 63.6899H0.0478339L0 61.5932H6.52135L6.56121 47.4025C6.58513 38.2583 14.119 31.3861 23.3828 31.7369C21.1665 29.6561 20.0344 27.0651 19.2452 24.4981C17.1006 24.4104 15.0039 23.4059 14.1907 21.4447C13.25 19.1885 14.2625 17.0758 15.8649 15.5452C16.2635 9.03975 19.859 3.53886 26.0216 1.1073C30.9166 -0.821994 36.3298 -0.224071 40.8262 2.85324C44.8442 5.55585 47.5309 10.2755 47.7462 15.5531C50.1299 17.3628 50.6321 20.6076 48.5833 22.8079C48.0651 23.1747 47.6266 23.9719 47.7143 24.6575C48.1049 27.8385 45.8169 30.6925 42.62 30.7324C41.7271 30.7404 40.8262 30.852 40.4674 31.7369C49.1573 31.4579 56.731 38.0191 57.0817 46.7568L57.1535 61.5852H63.5473ZM44.2065 14.7001H45.498C44.8203 7.31774 38.8331 1.92048 31.6022 2.02412C24.3713 2.12776 18.7907 7.42935 18.0892 14.6921L19.1256 14.8037C20.2178 8.681 25.4954 4.28826 31.5783 4.25637C37.6612 4.21651 43.0266 8.44183 44.2065 14.7001ZM29.7208 10.5146C29.7447 12.4997 31.0601 13.4245 32.4393 14.3334C35.3173 16.2308 38.8092 16.8207 42.3409 16.8925C42.333 11.0727 37.6692 6.61617 32.1922 6.51253C26.7391 6.40889 21.9239 10.2515 21.3817 15.9119C24.6663 15.5133 27.353 13.7354 27.6559 10.5864C27.6878 10.2595 28.2698 9.6297 28.5967 9.65362C28.9235 9.67754 29.4019 10.124 29.7287 10.5146H29.7208ZM32.0009 28.6118L40.3718 28.5958C42.4047 25.7099 42.8193 22.3934 42.2931 19.037C37.4459 18.9414 32.256 17.5542 28.78 13.9507C27.0421 16.1989 24.467 17.7615 21.2462 17.905L21.2861 22.6485C21.318 26.531 23.7415 30.0149 26.8747 31.6094C30.51 33.451 34.6955 33.2118 37.9402 30.836L31.953 30.7324L32.0009 28.6197V28.6118ZM19.1256 16.9881C17.3477 16.7091 15.8729 17.9687 15.9685 19.6908C16.0562 21.2693 17.5231 22.5369 19.1256 22.1383V16.9881ZM44.637 22.2738C46.9729 22.2738 47.8817 20.783 47.6904 19.1805C47.5229 17.7375 46.1676 16.7569 44.5652 16.9802L44.637 22.2658V22.2738ZM45.5458 24.4024L44.3978 24.5379L42.9867 28.3965C44.7884 28.1414 46.0241 26.2679 45.5378 24.3944L45.5458 24.4024ZM29.9998 42.2285L25.9738 34.0011L24.0764 33.9054L28.1024 42.2763L29.9998 42.2285ZM35.3891 42.2285L39.5028 33.9453L37.6452 33.9213L33.4837 42.2365H35.3891V42.2285ZM11.6794 47.4583C11.815 45.1145 13.545 42.6032 15.9606 42.5713L25.8781 42.4358L21.6289 34.0329C14.2944 34.3758 8.48254 40.2035 8.45065 47.6815L8.4347 61.5932H11.6874V47.4663L11.6794 47.4583ZM52.0113 61.3859H55.1285L55.1046 46.4299C54.3791 39.6534 48.8543 34.5272 41.9902 34.0011L37.6851 42.4437L47.7541 42.5155C50.2176 42.9858 52.0034 45.1145 52.0034 47.6576V61.378L52.0113 61.3859ZM35.0542 34.6548C32.7981 35.1491 30.9645 35.1251 28.5329 34.6628L31.7856 40.9051L35.0542 34.6548ZM49.7233 61.4099V47.6736C49.6515 46.0472 48.5195 44.7158 46.8373 44.6122H16.5824C15.1952 44.7637 13.8798 45.9276 13.8798 47.4105L13.8957 61.4258L49.7313 61.4099H49.7233Z" fill="#D52029"/>
<path d="M57.3125 9.56641H55.1201V11.6711H57.3125V9.56641Z" fill="#D52029"/>
<path d="M57.3047 17.9844H55.1123V20.1369H57.3047V17.9844Z" fill="#D52029"/>
<path d="M8.58594 26.5078H6.39355V28.6125H8.58594V26.5078Z" fill="#D52029"/>
<path d="M57.3045 13.8164H55.1201V15.9291H57.3045V13.8164Z" fill="#D52029"/>
<path d="M8.57797 22.2344H6.39355V24.3869H8.57797V22.2344Z" fill="#D52029"/>
<path d="M8.58578 30.7656H6.40137V32.8783H8.58578V30.7656Z" fill="#D52029"/>
<path d="M36.0743 52.9844C36.0743 55.3522 34.153 57.2735 31.7852 57.2735C29.4174 57.2735 27.4961 55.3522 27.4961 52.9844C27.4961 50.6166 29.4174 48.6953 31.7852 48.6953C34.153 48.6953 36.0743 50.6166 36.0743 52.9844ZM33.8819 52.9764C33.8819 51.8284 32.9492 50.8877 31.7932 50.8877C30.6372 50.8877 29.7044 51.8205 29.7044 52.9764C29.7044 54.1324 30.6372 55.0652 31.7932 55.0652C32.9492 55.0652 33.8819 54.1324 33.8819 52.9764Z" fill="#D52029"/>
<path d="M47.7464 51.8594H45.6338V59.2656H47.7464V51.8594Z" fill="#D52029"/>
<path d="M47.7416 47.6959L45.6289 47.6992L45.6322 49.8039L47.7449 49.8006L47.7416 47.6959Z" fill="#D52029"/>
<path d="M36.1149 22.1461C35.1981 22.9273 34.0023 23.5572 32.9818 23.0948C32.8383 21.3169 34.4009 20.1211 36.091 20.1211C37.6536 20.1211 39.3039 21.4844 39.0886 23.1585C38.0283 23.5332 36.8325 22.8875 36.1229 22.1461H36.1149Z" fill="#D52029"/>
<path d="M28.6282 23.1102C27.1613 20.846 26.8822 24.0031 24.4268 23.0464C24.5463 21.0453 25.9734 20.0647 27.6077 20.1365C29.1224 20.2003 30.6292 21.2048 30.693 23.2058L28.6282 23.1102Z" fill="#D52029"/>
</svg>
