<svg width="89" height="62" viewBox="0 0 89 62" fill="none" xmlns="http://www.w3.org/2000/svg">
<path d="M52.9574 4.16187C53.1014 2.92312 53.5912 1.81401 54.8299 1.81401H61.6286C62.9682 1.81401 63.9765 2.75027 64.1349 4.08985L64.5527 8.05096L71.0921 10.8165L74.5634 8.35344C75.5717 7.64765 76.8105 7.64765 77.7036 8.46868L82.0392 12.3578C83.0042 13.2508 83.2347 15.0513 82.3705 16.1316L79.4176 19.8335L81.7367 25.1774L87.3398 25.8112C87.8584 25.8832 88.7227 26.8915 88.7227 27.4532L88.8379 34.6696C88.8379 35.7932 87.7576 36.9167 86.6628 36.9167H81.8807L79.3024 43.1968L82.5577 46.6682C83.566 47.7485 82.1832 49.3618 81.4342 50.0676L77.8044 53.5822C76.6808 54.7057 75.5573 54.7777 74.2466 53.8126L70.732 51.2343L64.7831 53.8847L64.1061 58.5516C64.0341 59.1565 62.7954 60.0496 62.2048 60.0496H53.5336C52.9286 57.961 52.7557 56.5782 52.5253 54.288L46.7348 51.3783L42.9178 54.2592C42.2408 54.7777 40.93 54.7777 40.2962 54.1871L34.9955 49.2465C34.1025 48.4255 34.6931 46.7114 35.4133 45.9624L37.8764 43.3121C36.9113 41.1083 36.2631 39.423 35.5285 37.0319L29.8101 36.9599C28.4993 36.9599 27.8655 35.9948 27.9088 34.7849L28.096 28.1734L24.0196 28.9944L13.6343 57.212C12.8565 59.3438 10.912 60.7266 9.41394 61.2163C6.95085 61.9941 4.77584 61.706 2.73046 60.2512C0.555449 58.7244 -0.668881 55.3539 0.382615 52.6315L11.3297 24.63C8.23281 18.3066 6.20184 12.401 10.7247 6.16403C14.0088 1.68437 21.2973 -1.23965 23.5011 0.517642C25.1432 1.82841 20.217 8.1806 18.863 10.2404C17.509 12.3002 18.791 11.9545 19.2375 12.3722L22.5648 15.6563L28.701 15.4258L31.9563 6.56734C32.1435 6.0488 32.9214 5.22777 33.4543 5.11253C35.0243 4.78124 36.8537 8.62712 37.3722 9.93789C38.9422 13.827 38.4237 18.4651 36.3639 22.0805C34.3041 25.6959 32.2155 26.3009 29.7813 27.8421L29.8965 34.7993L36.8537 35.1018C37.8619 38.0114 38.9423 40.7049 40.325 43.5425L36.436 47.6477L41.8231 52.6603L46.6052 49.0737L54.0377 52.5883L54.974 58.0474L62.1472 57.9754L62.853 52.4442C65.8058 51.436 68.1536 50.3557 70.9624 48.7136L75.8598 52.5307L80.714 47.302L76.7529 43.0816C78.395 40.5033 79.4753 37.997 80.3107 34.9001L86.7781 34.6408V27.2804L80.3827 26.7186L77.5739 20.6977C76.5224 18.4507 79.6625 17.8601 81.2037 14.0863L76.0471 9.41934L71.1065 12.9771C68.3409 11.5511 65.8778 10.5141 62.7665 9.69302L62.0607 3.74415L54.9596 3.5569L54.2826 9.50577C51.3729 10.5141 48.4489 11.5655 45.9858 13.4669L39.2159 8.16619C38.7262 8.65593 38.4669 8.84318 38.611 8.42546C38.9855 7.74847 39.4752 7.1147 39.8497 6.99946C40.2242 6.88423 41.3045 7.30195 41.679 7.63324L45.8706 11.0758L52.41 8.07977L52.8566 4.00342L52.9286 4.23389L52.9574 4.16187ZM25.4745 26.6178C28.7586 25.984 31.8987 24.63 33.9152 21.9797C37.1706 17.6441 36.8681 11.9256 33.656 7.35957L30.2134 17.3704L21.7294 17.6729L17.1345 13.294C16.616 12.9195 15.939 11.4935 16.3135 10.8597L21.7006 2.11649C16.7312 2.63504 12.3524 5.67429 10.7823 10.298C9.44274 14.3311 10.5231 18.8252 12.6116 22.3398C13.6631 24.0971 13.3895 24.8029 12.6837 26.5314L3.04735 51.0471C2.22632 53.1068 1.62136 55.2386 2.71606 57.3704C3.81077 59.5022 5.78411 59.6175 7.54141 59.459C9.2987 59.3006 11.0128 58.3787 11.6466 56.6214L22.3344 27.1651L25.4745 26.5602V26.6034V26.6178Z" fill="#1EABDA"/>
<path d="M74.8222 31.02C74.8222 39.9937 67.5338 47.2822 58.56 47.2822C49.5863 47.2822 42.2979 39.9937 42.2979 31.02C42.2979 22.0463 49.5863 14.7578 58.56 14.7578C67.5338 14.7578 74.8222 22.0463 74.8222 31.02ZM72.9497 31.02C72.9497 23.0545 66.5255 16.6303 58.56 16.6303C50.5946 16.6303 44.1704 23.0545 44.1704 31.02C44.1704 38.9854 50.5946 45.4096 58.56 45.4096C66.5255 45.4096 72.9497 38.9854 72.9497 31.02Z" fill="#1EABDA"/>
<path d="M38.1068 26.4253C37.8043 27.0591 35.7876 26.7999 35.2979 26.5406L38.5822 21.2396C38.9135 20.721 40.3396 20.865 40.5268 21.47L38.0636 26.483L38.1068 26.4397V26.4253Z" fill="#1EABDA"/>
<path d="M9.77415 53.8202C9.77415 55.3183 8.53533 56.5427 7.05162 56.5427C5.56792 56.5427 4.3291 55.3039 4.3291 53.8202C4.3291 52.3365 5.56792 51.0977 7.05162 51.0977C8.53533 51.0977 9.77415 52.3365 9.77415 53.8202ZM7.98796 53.8634C7.98796 53.3016 7.54141 52.8983 7.02283 52.8983C6.50425 52.8983 6.05768 53.3448 6.05768 53.8634C6.05768 54.382 6.50425 54.8285 7.02283 54.8285C7.54141 54.8285 7.98796 54.382 7.98796 53.8634Z" fill="#1EABDA"/>
<path d="M64.9563 31.0647L57.1493 43.5531L57.2646 34.6225C55.0608 34.6225 53.6059 34.6946 51.5029 33.9888L58.5609 21.7597C58.705 21.5005 59.2667 21.1548 59.4972 21.126C59.7276 21.0971 60.059 21.7309 60.059 21.9902V28.9762L65.4461 29.1202L64.9563 31.108V31.0647ZM59.1515 37.2009L63.2566 30.5894L58.6618 30.5174L58.4025 25.3896L53.9228 32.9373H58.8634L59.1947 37.2009H59.1515Z" fill="#1EABDA"/>
</svg>
