<svg width="78" height="61" viewBox="0 0 78 61" fill="none" xmlns="http://www.w3.org/2000/svg">
<path d="M48.3346 20.6996C46.6494 19.7346 44.748 19.2736 42.8467 18.8271C42.7027 18.4094 42.8467 17.3291 43.0772 16.6953C48.9828 18.1501 54.1107 20.7284 53.6929 27.6424C53.2752 34.5563 52.7567 30.5952 50.9274 30.5952H26.6709C25.8931 30.5952 24.3519 30.1775 24.0494 29.5869C22.2489 26.0003 23.5309 22.0392 26.5557 19.6481C28.7595 17.9341 31.2658 17.3003 34.1034 16.6953L33.9882 18.8271C31.4099 19.3457 28.9036 19.9074 27.0022 21.6359C25.1009 23.3644 24.7984 26.0435 25.4322 28.5498L37.5028 28.6219V20.7284C37.5028 20.2387 38.6551 19.9794 39.3321 20.1667V28.5787H51.4459C52.267 25.3954 51.2587 22.3417 48.3491 20.6132V20.6852L48.3346 20.6996Z" fill="#D52029"/>
<path d="M66.7996 47.3621C67.1309 46.2818 71.5818 48.1831 72.5613 48.6008C76.4792 50.2141 78.3949 53.8727 77.9051 57.949C77.7611 59.2886 77.1561 60.5274 75.5573 60.5274H50.9984C49.0538 60.5274 48.348 59.2598 48.2328 57.5745C47.7431 50.7038 52.5252 48.3847 58.4309 46.8867L59.2087 48.7881C57.3074 49.3066 55.4348 49.7531 53.6343 50.6174C50.6815 52.0002 49.4139 55.1835 50.235 58.3956H75.759C76.4648 54.9962 75.0099 51.7409 71.9131 50.3581C68.8162 48.9753 68.2112 49.1626 66.3099 48.7881L66.7564 47.4053L66.7996 47.3621Z" fill="#D52029"/>
<path d="M18.5037 47.0561C21.2261 47.4306 23.5884 48.5109 25.5329 49.9369C28.1112 51.8094 28.8602 54.5318 28.6298 57.5278C28.3993 60.5239 27.7367 60.5239 25.8642 60.5239H2.7601C0.959589 60.5239 0.138537 59.0691 0.0377091 57.5278C-0.480837 50.6139 4.41655 47.9923 10.5383 46.84C7.4414 45.3132 5.5977 41.9859 5.82817 38.7593C6.08744 35.1007 8.47849 32.2487 12.1515 31.3557C15.7381 30.4626 19.3679 31.9606 21.2693 34.7262C23.4443 37.9383 23.0266 42.0867 20.5923 44.8523C18.2012 47.5746 14.1681 48.2948 10.6535 46.912L10.9848 48.7414C8.40647 49.3031 6.01541 49.7496 4.11408 51.3629C2.21275 52.9761 1.57894 55.8425 2.28474 58.2336H26.4259C27.3622 55.2376 26.1955 52.0687 23.2427 50.4554C20.2898 48.8422 20.0593 49.3319 18.3885 48.9286C16.7176 48.5253 18.086 46.9408 18.5757 47.0273L18.5037 47.0705V47.0561ZM18.9934 35.0575C17.5674 33.5595 15.2196 32.8537 13.3903 33.0697C9.61643 33.5595 6.99487 36.8436 7.78709 40.4734C8.42087 43.2822 10.5959 45.2556 13.0158 45.6301C15.7813 46.0478 18.4317 44.8523 19.6704 42.7925C21.1685 40.3294 21.0964 37.2181 18.9934 35.0575Z" fill="#D52029"/>
<path d="M47.2819 8.78647C47.2819 13.6406 43.364 17.5729 38.4955 17.5729C33.6269 17.5729 29.709 13.655 29.709 8.78647C29.709 3.9179 33.6269 0 38.4955 0C43.364 0 47.2819 3.9179 47.2819 8.78647ZM41.0882 14.9514C43.2632 13.9431 44.8188 12.1426 45.1645 10.3853C45.5102 8.62803 45.1645 5.93447 43.6377 4.17717C40.9874 1.22434 35.6435 1.29636 33.0939 4.36443C30.9189 6.94275 31.1494 10.3853 33.0219 12.8052C34.8944 15.1963 37.9913 16.3918 41.1314 14.937H41.0882V14.9514Z" fill="#D52029"/>
<path d="M71.468 39.5138C71.468 44.1521 67.7371 47.883 63.0987 47.883C58.4604 47.883 54.7295 44.1521 54.7295 39.5138C54.7295 34.8754 58.4604 31.1445 63.0987 31.1445C67.7371 31.1445 71.468 34.8754 71.468 39.5138ZM69.5233 39.4273C69.5233 35.8693 66.6423 32.9595 63.0555 32.9595C59.4687 32.9595 56.5877 35.8405 56.5877 39.4273C56.5877 43.0142 59.4687 45.8951 63.0555 45.8951C66.6423 45.8951 69.5233 43.0142 69.5233 39.4273Z" fill="#D52029"/>
<path d="M50.7253 45.2314H25.7919C25.2301 45.2314 24.5243 44.2951 24.6684 43.9638C24.8124 43.6325 25.4462 43.0996 25.8639 43.0996L37.4448 43.0276V34.0538C37.4016 33.7514 37.8625 33.1608 38.1218 32.9735C38.381 32.7863 39.2021 33.5785 39.2021 33.9386L39.3461 43.0564H50.4516C50.8981 43.0996 51.5319 43.6613 51.6904 43.9926C51.8488 44.3239 51.2727 45.2602 50.7253 45.2602V45.217V45.2314Z" fill="#D52029"/>
</svg>
