<svg width="85" height="61" viewBox="0 0 85 61" fill="none" xmlns="http://www.w3.org/2000/svg">
<path d="M22.0094 58.4413V37.5122H37.0328V58.4845L41.815 58.4413V30.9296C41.815 30.5119 42.3047 29.4316 42.8232 29.4316H56.8816V58.4701H62.2975V21.5813C62.2975 20.8035 63.0753 19.9393 63.8243 19.9393H75.5636C76.0534 19.8961 76.9896 20.6451 76.9896 21.2068V58.4413L83.0105 58.4845C83.385 58.4845 84.062 59.1183 84.0908 59.4496C84.1196 59.7809 83.4571 60.3859 82.8953 60.3859H1.26755C0.561754 60.3859 0 59.8961 0 59.4496C0 59.0031 0.749004 58.5133 1.15232 58.4845L4.24919 58.4125V46.558H17.256V58.4125H22.0382L21.995 58.4557L22.0094 58.4413ZM75.1171 21.927H64.2709V58.4845H75.1171V21.927ZM55.1243 31.2753H43.7595V58.4845H55.1243V31.2753ZM35.1603 39.4568H23.9539V58.4845H35.1603V39.4568ZM6.12172 48.4305V58.5277H15.4988V48.4305H6.12172Z" fill="#9789FA"/>
<path d="M11.6086 30.2268C11.1189 30.2268 10.1826 29.6218 10.1826 29.2185C10.1826 28.8152 10.8164 27.9509 11.2629 27.8357L21.1297 25.4014C31.5582 22.8231 47.9356 14.7424 55.5554 6.60413L53.2075 3.98259C53.0203 3.75213 52.7898 3.01752 52.833 2.74384C52.8762 2.47017 53.5388 1.85079 53.9565 1.80758L67.3811 0.0070741C67.7556 -0.036138 68.4614 0.122306 68.6198 0.381579C69.4841 2.02364 67.3523 12.6394 66.8193 15.3762C66.7761 15.6355 66.2576 16.3125 65.9983 16.3845C64.8748 16.6149 64.4715 14.4399 62.815 13.6189L55.008 18.257C48.6846 21.9877 42.1452 24.5372 35.044 26.6978C27.9428 28.8584 19.7181 29.9531 11.6518 30.2556L11.6086 30.2124V30.2268ZM39.3508 23.1976C47.9788 20.3888 55.4978 16.0244 62.743 10.8245L65.3645 12.8843L67.0066 2.12447L55.9731 3.57928C56.7941 4.58756 58.0329 6.20082 57.4711 7.23791C54.6623 10.7093 51.1189 13.0715 47.4171 15.5346C39.8694 20.5761 31.6447 23.8314 23.0886 27.0867C28.8071 26.8994 33.7765 24.9549 39.3076 23.1976H39.3508Z" fill="#9789FA"/>
</svg>
