<svg width="78" height="65" viewBox="0 0 78 65" fill="none" xmlns="http://www.w3.org/2000/svg">
<path d="M38.646 24.6417C38.646 25.1314 38.0122 25.8372 37.6809 25.794C35.9956 25.6068 37.4937 19.7011 36.8599 17.31L24.5588 16.0425C23.176 19.6291 24.3284 24.973 22.7295 26.2118C20.4537 28.0123 22.5855 15.9273 22.499 15.4519C20.0648 14.7749 18.0482 14.1124 15.8876 13.1761C13.1652 16.8347 11.552 21.0695 10.9902 25.5924C10.947 25.9669 10.5005 26.5574 10.2124 26.5574C9.9243 26.5574 9.2041 25.8517 9.2041 25.4339C9.31933 21.4296 11.1919 17.1804 13.2084 13.6946C18.6244 4.38962 27.9726 -0.579781 38.6604 0.0539968C46.1793 0.500522 53.1653 2.96361 58.4371 8.46596C61.0155 11.1883 66.1001 18.0735 64.5733 21.2856C64.4292 21.5881 63.4209 20.9543 63.3057 20.5366C62.5567 18.2175 61.4332 15.0774 59.6759 13.1041C57.4289 14.1124 55.2971 14.8614 53.0212 15.5672L53.6262 20.9831C53.6262 21.2135 53.2517 21.8761 53.0644 22.0346C52.8772 22.193 52.0562 22.1786 51.9409 21.9626L51.0479 15.9129L38.79 17.4109L38.6748 24.7425V24.6705L38.646 24.6417ZM37.0039 15.1062L36.8887 2.24341C30.7238 0.716584 26.2729 8.9701 25.1206 13.9827C29.1969 14.7317 33.014 15.1782 36.9751 15.1062H37.0183H37.0039ZM50.5005 13.8387C49.3482 10.4681 48.0374 7.67374 45.8624 5.31148C43.7738 3.29491 41.4548 1.75367 38.6172 2.28662L38.6892 15.2215C42.7943 15.1062 46.4674 14.5877 50.5005 13.8387ZM23.2048 13.565C24.2851 9.41663 25.9272 6.65105 28.1022 3.55418C23.4353 5.23946 19.9207 7.84659 17.2272 11.6349C19.431 12.5279 21.2603 13.1329 23.2481 13.6226L23.2048 13.5794V13.565ZM58.4516 11.4044C55.1962 7.51529 51.6528 4.89376 46.9715 3.51097C49.4058 6.69426 51.1631 9.79113 52.4595 13.6082C54.5913 13.1185 56.6078 12.4559 58.4371 11.4044H58.4516Z" fill="#FFA001"/>
<path d="M61.7511 56.3331C61.6359 55.8866 61.3766 55.368 61.1461 55.2528C60.9157 55.1375 60.3251 55.5841 60.2099 55.9298L58.0349 64.2265L52.8062 60.4094C51.0057 60.6687 47.9808 62.9877 46.8573 62.426C45.7338 61.8642 48.5714 52.3288 49.0611 50.5426C43.3427 44.8675 41.9599 36.297 46.7421 29.5415C52.2732 21.6913 63.5948 20.0061 71.1137 25.8109C79.2952 32.1343 79.9002 43.4847 72.4245 50.5138C73.2455 54.0716 74.1098 57.4278 75.2333 60.9856C76.5441 65.1339 70.2207 59.646 68.3914 60.9136L63.9405 64.0536L61.6935 56.3475H61.7367L61.7511 56.3331ZM75.507 38.7313C75.507 30.5786 68.8955 23.9672 60.7428 23.9672C52.5901 23.9672 45.9787 30.5786 45.9787 38.7313C45.9787 46.884 52.5901 53.4955 60.7428 53.4955C68.8955 53.4955 75.507 46.884 75.507 38.7313ZM57.0698 61L58.4958 55.1663C55.2837 54.4894 53.2671 53.7115 50.5736 51.839L48.485 60.0205L53.1519 58.1192L57.041 61H57.0842H57.0698ZM68.3626 58.1624L72.9286 59.9917L70.7536 51.911C68.4058 53.5531 66.3028 54.3021 63.5084 55.0511L65.0064 61C66.202 59.9197 67.3255 58.753 68.377 58.1624H68.3626Z" fill="#FFA001"/>
<path d="M38.8333 31.1811H1.90133L1.97335 56.2586H22.4559C22.8736 56.2586 23.6082 56.8203 23.5362 57.1228C23.4642 57.4253 22.8304 58.0879 22.4559 58.0879H0.0720203L0 30.8066C0 29.9424 0.749011 29.3806 1.64206 29.3086H40.5186L40.8931 52.8592C40.8931 54.5445 40.4754 55.8841 39.5535 57.1948H38.2139C37.9115 57.238 38.0699 56.3306 38.2139 56.1433C38.6317 55.4375 39.0782 54.386 39.0782 53.6082L38.8909 31.2243L38.8477 31.1811H38.8333Z" fill="#FFA001"/>
<path d="M35.6214 56.0008C36.7449 53.4657 37.3787 61.8344 37.2635 61.6472V62.6555C37.1915 64.3407 32.9999 60.2212 31.1274 60.3796C30.0471 60.5237 25.4522 65.0177 25.5962 61.7624L25.8267 56.5337C25.8267 55.8279 26.0571 54.8485 26.158 54.0706C23.6517 51.0026 24.4007 46.8254 27.5408 44.6504C30.6088 42.5618 34.714 43.4549 36.7738 46.9262C38.1998 49.3605 37.5228 52.6446 35.5782 54.474C33.6337 56.3033 30.6376 56.793 27.4975 55.439V60.0051C28.9956 59.5154 30.4072 58.0606 31.7179 58.5071L35.0885 59.7458L35.3189 56.6778C35.3189 56.5625 35.5494 56.116 35.6214 56.0008ZM35.4774 48.7123C34.5843 45.9035 31.9628 45.1977 29.5285 45.8747C27.3247 46.5085 25.9707 49.2453 26.8782 51.6364C27.7856 54.0274 30.436 54.7764 32.5966 54.0706C34.7572 53.3648 36.1832 51.0458 35.4774 48.77V48.7267V48.7123Z" fill="#FFA001"/>
<path d="M33.4175 36.5273H5.41602V38.5871H33.4175V36.5273Z" fill="#FFA001"/>
<path d="M24.2278 44.6338H7.36069C6.98619 44.6338 6.28039 44.216 6.04992 44.072C5.81946 43.928 5.86267 42.6892 6.28039 42.6172H23.9974C24.2999 42.6172 24.9624 43.1069 25.1497 43.323C25.3369 43.539 24.7032 44.6338 24.2134 44.6338H24.2278Z" fill="#FFA001"/>
<path d="M18.4968 51.0279H6.46873C6.05099 51.0279 5.22991 50.3941 5.27313 50.0628C5.31634 49.7315 6.05099 49.0977 6.51195 49.0977H18.468C18.8857 49.0977 19.5916 49.7315 19.6636 50.106C19.7356 50.4805 18.9146 51.0711 18.5112 51.0711V51.0279H18.4968Z" fill="#FFA001"/>
<path d="M72.6685 38.6141C72.6685 45.1967 67.3246 50.5406 60.7132 50.5406C54.1017 50.5406 48.7578 45.1967 48.7578 38.6141C48.7578 32.0314 54.1017 26.6875 60.7132 26.6875C67.3246 26.6875 72.6685 32.0314 72.6685 38.6141ZM70.8248 38.6573C70.8248 33.0829 66.3019 28.56 60.7276 28.56C55.1532 28.56 50.6303 33.0829 50.6303 38.6573C50.6303 44.2316 55.1532 48.7545 60.7276 48.7545C66.3019 48.7545 70.8248 44.2316 70.8248 38.6573Z" fill="#FFA001"/>
<path d="M58.3518 42.6959L54.9811 39.1091C54.7218 38.8498 54.6498 37.9855 54.7938 37.7262C54.9379 37.4669 55.8022 37.5389 56.0327 37.7694L59.4754 41.0969L65.828 34.9605C66.0585 34.73 66.9804 34.73 67.2108 34.8452C67.4413 34.9605 67.4701 35.9688 67.2108 36.1849L60.527 42.6095C60.0372 43.0992 58.8128 43.1713 58.3518 42.6527V42.6959Z" fill="#FFA001"/>
</svg>
