<svg width="73" height="67" viewBox="0 0 73 67" fill="none" xmlns="http://www.w3.org/2000/svg">
<path d="M32.871 66.2157C32.6405 66.547 32.0932 66.9648 31.8195 66.9936C31.5458 67.0224 30.696 66.6623 30.5087 66.3598C25.3809 58.4664 20.7572 48.3835 20.3827 38.8913L10.4007 42.4779C7.37585 43.5582 5.12881 45.2002 4.45182 48.5708C3.40032 53.9867 2.5793 59.3018 1.80148 64.8618C1.72946 65.3083 1.28292 65.9853 0.937225 65.9853C0.591528 65.9853 -0.0278375 65.1642 0.000970647 64.7897C0.778789 58.9561 1.61422 52.9784 2.80976 47.3032C3.51555 43.9039 5.80579 41.9161 8.85945 40.9078C12.8926 39.5682 22.8746 36.8027 23.7677 32.8272C19.432 28.3763 18.3517 22.3266 19.3168 16.3777C20.4691 9.5358 26.418 5.38744 33.2167 6.51095C38.6326 7.404 42.709 11.077 43.7172 16.6802C44.7687 22.4418 43.5732 28.7508 39.3096 33.0144C40.1739 35.1894 41.8879 36.529 44.0197 37.3068L55.2261 41.3832C57.8476 42.3194 59.7058 44.3792 60.3539 47.1736C61.6647 52.8488 62.4137 58.6824 63.1915 64.5593C63.2347 64.8906 62.7018 65.8268 62.3705 65.8989C62.0392 65.9709 61.6215 65.5243 61.3622 65.1498C60.6132 59.4746 59.8354 54.0155 58.6687 48.4411C58.1789 46.0933 56.7961 44.0623 54.4483 43.2125L42.7522 38.9921C42.2336 48.7436 38.1141 58.1639 32.8422 66.2734V66.2013L32.871 66.2157ZM40.5772 27.4832C41.8159 24.6745 41.96 21.6496 41.8447 18.6248C41.6143 12.7191 37.5091 8.64275 31.6755 8.42669C26.0291 8.19623 21.6935 11.754 21.1029 17.4724C20.4979 23.1908 21.1749 26.5902 24.1278 30.22C26.3316 32.9424 29.8894 33.9939 33.476 33.4033C36.4288 32.9136 39.1512 30.6809 40.534 27.4977H40.5772V27.4832ZM33.0294 40.1156L37.5523 36.2985C38.0421 35.8808 37.9989 34.1667 37.4083 34.2099C33.4904 36.0104 29.414 36.0825 25.669 33.9507C23.3211 35.7512 27.7288 38.3295 29.7741 39.8995C31.8195 41.4696 32.2084 40.7926 33.0294 40.13V40.1156ZM33.8073 49.0893L35.8959 56.7955C37.6099 54.7069 43.5588 37.134 39.2952 37.0907L34.0233 42.0313C35.0316 43.0828 36.8321 44.3072 36.8321 45.762C36.8321 47.3752 35.118 48.0378 33.8361 49.0461L33.7929 49.0893H33.8073ZM26.5188 44.4512L28.7659 41.7577L23.6812 37.3068C22.817 36.8891 21.9959 38.7328 22.1544 39.6259C22.9754 45.5315 24.171 51.0627 27.1958 56.3778L28.7226 50.2416C29.3276 47.8074 24.243 47.1736 26.4756 44.4512H26.5188ZM34.6715 45.8052C33.5912 44.5665 32.3237 43.0396 31.0129 43.1549C29.7021 43.2701 28.6218 44.7969 28.0168 45.8052C29.9614 47.865 32.8422 47.8938 34.6283 45.8052H34.6715ZM34.7003 59.4458L32.1652 50.2128C32.0932 49.9536 31.6755 49.5359 31.4882 49.507C31.301 49.4782 30.6672 49.9536 30.5952 50.2128L28.2041 58.7688C29.2556 60.9439 30.2927 62.6579 31.6467 64.5305L34.7147 59.4458H34.7003Z" fill="#01D183"/>
<path d="M60.1524 21.3924L54.3908 24.1147C53.7138 24.446 52.5903 24.5324 52.0429 24.1867C51.4956 23.8411 51.1499 22.7319 51.2651 22.127L52.4607 15.4723L48.1251 11.7416C47.4481 11.1799 47.2608 9.65306 47.5201 8.83203C47.7793 8.011 49.1333 7.49245 50.3289 7.40603L55.2695 7.14676L58.3375 0.93861C58.568 0.448872 59.4898 0.0455589 59.9076 0.00234674C60.3253 -0.0408654 61.4056 0.520893 61.6216 1.01063L64.272 6.98831C66.2597 7.76613 71.0419 6.80106 72.1654 8.60156C73.2889 10.4021 72.5399 11.2519 71.9782 11.7849L67.5993 15.818L68.6796 22.4006C68.7516 22.8904 68.4924 23.9275 68.1611 24.23C67.8298 24.5324 66.5911 24.6765 66.1733 24.4604L60.1524 21.4356V21.3924ZM66.6631 22.4439L65.6116 14.9682L70.9123 10.0276C68.1467 8.78882 63.8111 9.84031 62.8748 8.3855L59.9652 2.3358L56.4506 9.24975C53.685 9.24975 51.7405 9.29296 48.9749 9.92674L54.506 15.0834L53.1232 22.6311L59.994 19.2606L66.6054 22.4439H66.6486H66.6631Z" fill="#01D183"/>
<path d="M40.0144 65.0931C39.6831 65.6116 39.0061 66.0293 38.6748 66.0293C38.3435 66.0293 37.9258 64.8338 38.1562 64.4593C41.5268 59.0001 44.9982 51.7549 46.9427 45.9213C47.0867 45.5036 48.0662 45.3595 48.1814 45.59C48.2967 45.8204 48.5992 46.6415 48.4839 46.9728C46.4674 53.1809 43.4713 59.3891 40.0432 65.1075L40.0144 65.0931Z" fill="#01D183"/>
<path d="M25.0208 64.3423C25.1648 64.5728 25.0928 65.3506 25.0928 65.5811C25.0928 65.8115 23.9693 66.0996 23.7532 65.7683C20.4691 60.4965 16.8825 53.3232 14.9379 47.0431C14.7507 46.4381 15.082 45.5883 15.4277 45.473C15.7734 45.3578 16.508 45.8907 16.6232 46.2508C18.7982 52.6751 21.5206 58.3214 25.0352 64.2703V64.3423H25.0208Z" fill="#01D183"/>
</svg>
