<svg width="66" height="67" viewBox="0 0 66 67" fill="none" xmlns="http://www.w3.org/2000/svg">
<g clip-path="url(#clip0_2077_28)">
<path d="M64.8836 67C64.3869 67 63.9292 66.66 63.8008 66.1444C62.7962 62.1386 59.252 59.3453 55.1776 59.3453C51.1032 59.3453 47.559 62.1443 46.5543 66.1444C46.4036 66.7507 45.7953 67.119 45.198 66.9603C44.6008 66.8074 44.238 66.1898 44.3943 65.5835C45.5943 60.8184 49.6687 57.4189 54.4464 57.1016C51.4994 56.7333 49.2111 54.1779 49.2111 51.09C49.2111 47.7471 51.8901 45.0331 55.1776 45.0331C58.465 45.0331 61.1441 47.7527 61.1441 51.09C61.1441 54.1779 58.8557 56.7333 55.9087 57.1016C60.6864 57.4189 64.7608 60.8184 65.9608 65.5835C66.1115 66.1898 65.7543 66.8074 65.1571 66.9603C65.0622 66.983 64.9729 66.9943 64.878 66.9943L64.8836 67ZM55.1776 47.2995C53.118 47.2995 51.4436 48.9992 51.4436 51.09C51.4436 53.1807 53.118 54.8805 55.1776 54.8805C57.2371 54.8805 58.9115 53.1807 58.9115 51.09C58.9115 48.9992 57.2371 47.2995 55.1776 47.2995ZM20.5227 67C20.026 67 19.5683 66.66 19.4399 66.1444C18.4353 62.1386 14.8911 59.3453 10.8167 59.3453C6.74223 59.3453 3.19805 62.1443 2.1934 66.1444C2.0427 66.7507 1.43433 67.119 0.837117 66.9603C0.239907 66.8074 -0.122883 66.1898 0.0333958 65.5835C1.2334 60.8184 5.30781 57.4189 10.0855 57.1016C7.13851 56.7333 4.85014 54.1779 4.85014 51.09C4.85014 47.7471 7.52921 45.0331 10.8167 45.0331C14.1041 45.0331 16.7832 47.7527 16.7832 51.09C16.7832 54.1779 14.4948 56.7333 11.5478 57.1016C16.3255 57.4189 20.3999 60.8184 21.5999 65.5835C21.7506 66.1898 21.3934 66.8074 20.7962 66.9603C20.7013 66.983 20.612 66.9943 20.5171 66.9943L20.5227 67ZM10.8222 47.2995C8.7627 47.2995 7.08828 48.9992 7.08828 51.09C7.08828 53.1807 8.7627 54.8805 10.8222 54.8805C12.8818 54.8805 14.5562 53.1807 14.5562 51.09C14.5562 48.9992 12.8818 47.2995 10.8222 47.2995ZM32.9971 61.3567C30.0111 61.3567 27.025 60.8694 24.1841 59.9006C23.598 59.7022 23.2855 59.0563 23.4808 58.4671C23.6762 57.8721 24.3125 57.5548 24.8929 57.7532C30.1171 59.5379 35.8715 59.5379 41.0901 57.7532C41.6762 57.5548 42.3069 57.8721 42.5022 58.4671C42.6976 59.062 42.385 59.7022 41.799 59.9006C38.958 60.8694 35.972 61.3567 32.986 61.3567H32.9971ZM32.9971 51.5319C31.4232 51.5319 30.0167 50.4611 29.5701 48.9312L28.7553 46.2173C28.6436 45.849 28.2697 45.628 27.9013 45.713L25.1832 46.3532C23.6315 46.7045 22.0632 46.0076 21.2762 44.6138C20.4892 43.22 20.679 41.4918 21.7562 40.3133L23.6594 38.2282C23.9162 37.945 23.9162 37.4973 23.6594 37.214L21.7562 35.129C20.679 33.9504 20.4836 32.2223 21.2762 30.8285C22.0632 29.4347 23.6315 28.7378 25.1776 29.0891L27.9069 29.735C28.2697 29.82 28.6492 29.599 28.7553 29.2307L29.5757 26.5054C30.0167 24.9812 31.4287 23.9104 33.0027 23.9104C34.5767 23.9104 35.9832 24.9812 36.4297 26.511L37.2446 29.2307C37.3562 29.599 37.7301 29.82 38.0985 29.735L40.8166 29.0947C42.3683 28.7434 43.9366 29.4403 44.7236 30.8342C45.5106 32.228 45.3208 33.9561 44.2436 35.1346L42.3404 37.2197C42.0836 37.503 42.0836 37.9506 42.3404 38.2339L44.2436 40.319C45.3208 41.4975 45.5162 43.2256 44.7236 44.6195C43.9366 46.0133 42.3627 46.7102 40.8222 46.3589L38.0929 45.713C37.7301 45.628 37.3506 45.849 37.2446 46.2173L36.4241 48.9426C35.9832 50.4667 34.5766 51.5376 32.9971 51.5376V51.5319ZM28.0576 43.4239C29.3357 43.4239 30.5078 44.2682 30.8873 45.5543L31.7022 48.274C31.8697 48.8576 32.3999 49.2599 32.9915 49.2599C33.5832 49.2599 34.1078 48.8576 34.2753 48.2853L35.0957 45.5487C35.5422 44.0472 37.0771 43.1463 38.5841 43.4976L41.3078 44.1378C41.8883 44.2682 42.4799 44.0075 42.7757 43.4749C43.0771 42.948 42.999 42.2964 42.5915 41.8488L40.6883 39.7637C39.6446 38.6135 39.6446 36.8174 40.6883 35.6672L42.5971 33.5822C43.0046 33.1345 43.0771 32.483 42.7813 31.956C42.4799 31.4291 41.8883 31.1628 41.3022 31.2988L38.5897 31.939C37.0771 32.2903 35.5478 31.3894 35.0957 29.888L34.2808 27.1683C34.2808 27.1683 34.2808 27.1626 34.2808 27.157C34.1134 26.579 33.5832 26.1824 32.9971 26.1824C32.4111 26.1824 31.8808 26.5847 31.7134 27.157L30.8929 29.8936C30.4464 31.3951 28.9115 32.296 27.4046 31.9447L24.6808 31.3044C24.106 31.1741 23.5087 31.4404 23.2129 31.9674C22.9171 32.4943 22.9897 33.1459 23.3971 33.5935L25.3004 35.6786C26.3441 36.8288 26.3441 38.6249 25.3004 39.7751L23.3971 41.8601C22.9897 42.3077 22.9171 42.9593 23.2129 43.4863C23.5143 44.0132 24.106 44.2795 24.692 44.1435L27.4046 43.5033C27.6278 43.4523 27.8455 43.4296 28.0632 43.4296L28.0576 43.4239ZM32.9971 41.6675C30.8539 41.6675 29.1069 39.894 29.1069 37.7183C29.1069 35.5426 30.8539 33.7691 32.9971 33.7691C35.1404 33.7691 36.8873 35.5426 36.8873 37.7183C36.8873 39.894 35.1404 41.6675 32.9971 41.6675ZM32.9971 36.0412C32.0818 36.0412 31.3394 36.7948 31.3394 37.724C31.3394 38.6532 32.0818 39.4068 32.9971 39.4068C33.9125 39.4068 34.6548 38.6532 34.6548 37.724C34.6548 36.7948 33.9125 36.0412 32.9971 36.0412ZM59.012 38.8515C58.9562 38.8515 58.8948 38.8515 58.8334 38.8345C58.225 38.7382 57.812 38.1546 57.9069 37.537C59.6427 26.4487 54.1673 15.6154 44.2771 10.584C43.7246 10.3064 43.5013 9.6208 43.7804 9.06554C44.0539 8.50461 44.7292 8.27797 45.2762 8.56127C56.0427 14.0346 62.0036 25.8255 60.1115 37.894C60.0222 38.4492 59.5478 38.8515 59.012 38.8515ZM6.98781 38.8515C6.44642 38.8515 5.972 38.4549 5.88828 37.894C3.99619 25.8198 9.9627 14.0346 20.7292 8.56127C21.2818 8.28364 21.9515 8.51027 22.225 9.06554C22.4985 9.62647 22.2753 10.3064 21.7283 10.584C11.8325 15.6154 6.35712 26.443 8.09293 37.537C8.18781 38.1546 7.77479 38.7382 7.16642 38.8345C7.10502 38.8458 7.04921 38.8515 6.98781 38.8515ZM42.7032 21.9669C42.2064 21.9669 41.7487 21.627 41.6204 21.1114C40.6157 17.1055 37.0715 14.3122 32.9971 14.3122C28.9227 14.3122 25.3785 17.1112 24.3739 21.1114C24.2232 21.7176 23.6148 22.0859 23.0176 21.9273C22.4204 21.7743 22.0576 21.1567 22.2139 20.5504C23.4139 15.7854 27.4883 12.3858 32.266 12.0685C29.319 11.7002 27.0306 9.14486 27.0306 6.05691C27.0306 2.714 29.7097 0 32.9971 0C36.2846 0 38.9636 2.71966 38.9636 6.05691C38.9636 9.14486 36.6753 11.7002 33.7283 12.0685C38.506 12.3858 42.5804 15.7854 43.7804 20.5504C43.9311 21.1567 43.5739 21.7743 42.9766 21.9273C42.8818 21.9499 42.7925 21.9613 42.6976 21.9613L42.7032 21.9669ZM32.9971 2.26638C30.9376 2.26638 29.2632 3.96617 29.2632 6.05691C29.2632 8.14765 30.9376 9.84744 32.9971 9.84744C35.0566 9.84744 36.7311 8.14765 36.7311 6.05691C36.7311 3.96617 35.0566 2.26638 32.9971 2.26638Z" fill="#FFA001"/>
</g>
<defs>
<clipPath id="clip0_2077_28">
<rect width="66" height="67" fill="white"/>
</clipPath>
</defs>
</svg>
