<svg width="65" height="67" viewBox="0 0 65 67" fill="none" xmlns="http://www.w3.org/2000/svg">
<g clip-path="url(#clip0_2077_30)">
<path d="M63.5958 67C62.9804 67 62.477 66.4901 62.477 65.8668V63.5664C62.3204 58.9147 58.5669 55.2431 53.9353 55.2431C49.3036 55.2431 45.5501 58.9147 45.3935 63.6061V65.8668C45.3935 66.4901 44.8957 67 44.2748 67C43.6539 67 43.156 66.4901 43.156 65.8668V63.5664C42.9826 58.9373 39.2291 55.2828 34.6199 55.2828C30.0106 55.2828 26.2571 58.943 26.0781 63.6118V65.8668C26.0781 66.4901 25.5803 67 24.9594 67C24.3384 67 23.8406 66.4901 23.8406 65.8668V63.5664C24.0643 57.6285 28.7967 53.0164 34.6143 53.0164C38.8432 53.0164 42.4959 55.4528 44.2636 59.0393C46.0256 55.4188 49.684 52.9767 53.9297 52.9767C59.7752 52.9767 64.5076 57.6115 64.7089 63.5268V65.8668C64.7089 66.4901 64.2111 67 63.5902 67H63.5958ZM54.1255 50.0531C52.3522 50.0531 50.6797 49.3732 49.4211 48.1437C48.1513 46.9028 47.452 45.2484 47.452 43.4863C47.452 41.7241 48.1513 40.0697 49.4211 38.8288C50.6797 37.5993 52.3522 36.9194 54.1255 36.9194C55.8987 36.9194 57.5712 37.5993 58.8298 38.8288C60.0996 40.0697 60.7989 41.7241 60.7989 43.4863C60.7989 45.2484 60.0996 46.9028 58.8298 48.1437C57.5712 49.3732 55.8987 50.0531 54.1255 50.0531ZM54.1255 39.1801C52.934 39.1801 51.8152 39.6334 50.9761 40.455C50.1483 41.2652 49.6896 42.3417 49.6896 43.4863C49.6896 44.6308 50.1427 45.7073 50.9761 46.5175C51.8152 47.3391 52.934 47.7924 54.1255 47.7924C55.3169 47.7924 56.4357 47.3391 57.2748 46.5175C58.1026 45.7073 58.5613 44.6308 58.5613 43.4863C58.5613 42.3417 58.1026 41.2709 57.2748 40.455C56.4357 39.6334 55.3169 39.1801 54.1255 39.1801ZM34.81 50.0531C33.0368 50.0531 31.3643 49.3732 30.1057 48.1437C28.8359 46.9028 28.1366 45.2484 28.1366 43.4863C28.1366 41.7241 28.8359 40.0697 30.1057 38.8288C31.3643 37.5993 33.0368 36.9194 34.81 36.9194C36.5833 36.9194 38.2558 37.5993 39.5144 38.8288C40.7842 40.0697 41.4835 41.7241 41.4835 43.4863C41.4835 45.2484 40.7842 46.9028 39.5144 48.1437C38.2558 49.3732 36.5833 50.0531 34.81 50.0531ZM34.81 39.1801C33.6186 39.1801 32.4998 39.6334 31.6607 40.455C30.8328 41.2652 30.3742 42.3417 30.3742 43.4863C30.3742 44.6308 30.8273 45.7073 31.6607 46.5175C32.4998 47.3391 33.6186 47.7924 34.81 47.7924C36.0015 47.7924 37.1203 47.3391 37.9594 46.5175C38.7872 45.7073 39.2459 44.6308 39.2459 43.4863C39.2459 42.3417 38.7872 41.2652 37.9594 40.455C37.1203 39.6334 36.0015 39.1801 34.81 39.1801ZM22.5932 42.0981C21.9779 42.0981 21.4744 41.5882 21.4744 40.9649V34.1544C21.4744 33.9051 21.5527 33.6615 21.7038 33.4688L37.1259 13.043C38.239 11.4962 37.9202 9.23552 36.3819 8.04567C34.8436 6.85581 32.6061 7.12778 31.3978 8.66326L23.0407 19.5362C22.2296 20.5901 21.0101 21.1907 19.6956 21.1907H10.5441C8.32897 21.1907 6.24808 22.0633 4.68181 23.6441C3.10995 25.2305 2.24851 27.3439 2.24851 29.5933V40.7269C2.24851 41.3502 1.74507 41.8601 1.12975 41.8601C0.514429 41.8601 0.0109863 41.3502 0.0109863 40.7269V29.5933C0.0109863 26.7377 1.10737 24.0577 3.10436 22.0406C5.09575 20.0292 7.73603 18.9243 10.5441 18.9243H19.6956C20.3221 18.9356 20.8983 18.641 21.2842 18.1424L29.647 7.2581C31.6216 4.75941 35.252 4.3118 37.7468 6.24956C40.2416 8.18165 40.7674 11.8475 38.9159 14.4199L38.8152 14.5502L23.7231 34.5454V40.9706C23.7231 41.5938 23.2197 42.1038 22.6044 42.1038L22.5932 42.0981ZM58.5446 31.9617C57.9292 31.9617 57.4258 31.4518 57.4258 30.8285V26.7207H36.6952C36.0798 26.7207 35.5764 26.2107 35.5764 25.5875C35.5764 24.9642 36.0798 24.4543 36.6952 24.4543H61.0394C61.9903 24.4543 62.7623 23.6724 62.7623 22.7092V4.0115C62.7623 3.04829 61.9903 2.26638 61.0394 2.26638H38.9662C38.3509 2.26638 37.8475 1.75645 37.8475 1.13319C37.8475 0.509937 38.3453 0 38.9662 0H61.0394C63.221 0 64.9998 1.79611 64.9998 4.00584V22.7092C64.9998 24.9189 63.221 26.7207 61.0394 26.7207H59.6633V30.8285C59.6633 31.4518 59.1599 31.9617 58.5446 31.9617ZM12.6306 31.9617C12.0153 31.9617 11.5118 31.4518 11.5118 30.8285V26.494C11.5118 25.8708 12.0153 25.3608 12.6306 25.3608C13.2459 25.3608 13.7494 25.8708 13.7494 26.494V30.8285C13.7494 31.4518 13.2459 31.9617 12.6306 31.9617ZM56.8944 18.386C56.5252 18.386 56.1616 18.1991 55.949 17.8591L53.952 14.6522L50.1091 16.9639C49.6392 17.2472 49.0351 17.1452 48.6827 16.7203L45.097 12.4028C44.6999 11.9212 44.7614 11.2073 45.2313 10.805C45.7068 10.4027 46.4116 10.465 46.8088 10.941L49.7791 14.5219L53.7395 12.1365C54.2597 11.8192 54.9366 11.9835 55.2554 12.5048L57.8341 16.6466C58.1642 17.1735 58.0075 17.8761 57.4817 18.2104C57.2971 18.3294 57.0902 18.386 56.8888 18.386H56.8944ZM12.6306 16.9696C10.3931 16.9696 8.28982 16.0857 6.70677 14.4822C5.12372 12.8787 4.25668 10.7483 4.25668 8.48195C4.25668 6.21556 5.12932 4.08516 6.70677 2.48169C8.29541 0.88389 10.3931 0 12.6306 0C14.8681 0 16.9714 0.88389 18.5544 2.48736C20.1375 4.09082 21.0045 6.22123 21.0045 8.48761C21.0045 10.754 20.1319 12.8844 18.5544 14.4879C16.9714 16.0913 14.8681 16.9752 12.6306 16.9752V16.9696ZM12.6306 2.26638C10.9916 2.26638 9.44773 2.9123 8.28982 4.08516C7.1319 5.25801 6.4942 6.82182 6.4942 8.48195C6.4942 10.1421 7.1319 11.7059 8.28982 12.8787C9.44773 14.0516 10.9916 14.6975 12.6306 14.6975C14.2696 14.6975 15.8135 14.0516 16.9714 12.8787C18.1293 11.7059 18.767 10.1421 18.767 8.48195C18.767 6.82182 18.1293 5.25801 16.9714 4.08516C15.8135 2.9123 14.2696 2.26638 12.6306 2.26638Z" fill="#9789FA"/>
</g>
<defs>
<clipPath id="clip0_2077_30">
<rect width="65" height="67" fill="white"/>
</clipPath>
</defs>
</svg>
