<svg width="67" height="67" viewBox="0 0 67 67" fill="none" xmlns="http://www.w3.org/2000/svg">
<g clip-path="url(#clip0_2077_34)">
<path d="M56.0042 67C54.2934 67 52.7639 66.1898 51.7838 64.9376C50.8038 66.1954 49.2742 67 47.5634 67C44.6119 67 42.2099 64.5976 42.2099 61.6457V37.8713C39.8986 40.9366 36.5336 43.0953 32.6531 43.8999C31.2368 44.2285 29.7356 43.8942 28.5743 42.9763C27.4356 42.0868 26.7615 40.7439 26.7332 39.2934C26.7332 39.2821 26.7332 39.2765 26.7332 39.2651C26.7388 37.282 27.9398 35.5199 29.7809 34.7833C34.3243 33.1175 34.7151 31.9277 35.3043 30.1316C35.4799 29.599 35.6782 28.9984 35.9841 28.3468C35.9954 28.3185 36.0124 28.2845 36.0294 28.2562C39.1395 22.9188 44.9235 19.6212 51.087 19.7006C55.3981 19.7289 59.5845 21.5363 62.5643 24.6583C65.5441 27.7802 67.153 32.0467 66.983 36.3585V43.3503C66.983 45.526 65.2155 47.2995 63.0345 47.2995H61.352V61.6457C61.352 64.5976 58.95 67 55.9986 67H56.0042ZM52.9168 61.6457C52.9168 63.3511 54.3047 64.7336 56.0042 64.7336C57.7037 64.7336 59.0917 63.3455 59.0917 61.6457V33.5028C59.0917 32.8796 59.6015 32.3696 60.2247 32.3696C60.8478 32.3696 61.3577 32.8796 61.3577 33.5028V45.0331H63.0402C63.9692 45.0331 64.7227 44.2795 64.7227 43.3503V36.3131C64.87 32.5679 63.4877 28.9021 60.9271 26.2221C58.3665 23.5421 54.7749 21.9896 51.07 21.9669C45.7392 21.9159 40.7201 24.7433 38.0122 29.3554C37.7742 29.8653 37.61 30.3639 37.4513 30.8398C36.6526 33.2705 35.7405 35.0043 30.5854 36.8967C29.6393 37.2764 29.0048 38.2056 28.9935 39.2595C29.0105 40.0187 29.3674 40.7213 29.9622 41.1859C30.591 41.6788 31.3898 41.8545 32.1602 41.6788C36.8169 40.7156 40.5898 37.5087 42.2723 33.0892C42.4649 32.5793 42.9974 32.279 43.5356 32.381C44.0737 32.4773 44.4646 32.9476 44.4646 33.4972V61.64C44.4646 63.3455 45.8525 64.728 47.552 64.728C49.2515 64.728 50.6395 63.3398 50.6395 61.64V47.5658C50.6395 46.9425 51.1493 46.4326 51.7725 46.4326C52.3956 46.4326 52.9055 46.9425 52.9055 47.5658V61.64L52.9168 61.6457ZM20.8302 67C20.2071 67 19.6972 66.4901 19.6972 65.8668V64.184H15.2049C14.5817 64.184 14.0719 63.6741 14.0719 63.0508C14.0719 62.4276 14.5817 61.9176 15.2049 61.9176H23.6457C24.5748 61.9176 25.3282 61.1641 25.3282 60.2348C25.3282 59.3056 24.5748 58.5521 23.6457 58.5521H18.0204C15.845 58.5521 14.0719 56.7786 14.0719 54.6029C14.0719 52.4272 15.845 50.6537 18.0204 50.6537H19.7029V48.9709C19.7029 48.3477 20.2127 47.8377 20.8359 47.8377C21.459 47.8377 21.9689 48.3477 21.9689 48.9709V50.6537H26.4612C27.0844 50.6537 27.5942 51.1636 27.5942 51.7869C27.5942 52.4101 27.0844 52.9201 26.4612 52.9201H18.0204C17.0913 52.9201 16.3379 53.6737 16.3379 54.6029C16.3379 55.5321 17.0913 56.2857 18.0204 56.2857H23.6457C25.8211 56.2857 27.5942 58.0591 27.5942 60.2348C27.5942 62.4106 25.8211 64.184 23.6457 64.184H21.9632V65.8668C21.9632 66.4901 21.4534 67 20.8302 67ZM6.75835 67C6.1352 67 5.62535 66.4901 5.62535 65.8668V44.4835H2.53792C1.13867 44.4835 0 43.3446 0 41.9451V37.724C0 37.1007 0.50985 36.5908 1.133 36.5908H22.2351C22.8583 36.5908 23.3681 37.1007 23.3681 37.724C23.3681 38.3472 22.8583 38.8572 22.2351 38.8572H2.266V41.9451C2.266 42.0981 2.39063 42.2171 2.53792 42.2171H20.8302C21.4534 42.2171 21.9632 42.727 21.9632 43.3503C21.9632 43.9735 21.4534 44.4835 20.8302 44.4835H7.89135V65.8668C7.89135 66.4901 7.3815 67 6.75835 67ZM1.21798 33.2252C1.17266 33.2252 1.133 33.2252 1.08768 33.2195C0.46453 33.1459 0.016995 32.5849 0.0906401 31.9674C0.821426 25.5535 5.81229 20.5618 12.2251 19.8252C18.6379 19.0886 24.6258 22.8225 26.7955 28.9021C27.0051 29.4913 26.6992 30.1373 26.11 30.3526C25.5208 30.5622 24.875 30.2562 24.6598 29.667C22.847 24.5846 17.8504 21.4683 12.4857 22.0803C7.12658 22.6978 2.95713 26.868 2.34531 32.228C2.27733 32.8059 1.79014 33.2309 1.22364 33.2309L1.21798 33.2252ZM50.3789 16.3406C45.8752 16.3406 42.2099 12.6748 42.2099 8.17032C42.2099 3.66588 45.8752 0 50.3789 0C54.8826 0 58.5478 3.66588 58.5478 8.17032C58.5478 12.6748 54.8826 16.3406 50.3789 16.3406ZM50.3789 2.26638C47.1272 2.26638 44.4759 4.91239 44.4759 8.17032C44.4759 11.4282 47.1215 14.0743 50.3789 14.0743C53.6363 14.0743 56.2818 11.4282 56.2818 8.17032C56.2818 4.91239 53.6363 2.26638 50.3789 2.26638ZM13.7943 16.3406C9.29061 16.3406 5.62535 12.6748 5.62535 8.17032C5.62535 3.66588 9.29061 0 13.7943 0C18.298 0 21.9632 3.66588 21.9632 8.17032C21.9632 12.6748 18.298 16.3406 13.7943 16.3406ZM13.7943 2.26638C10.5426 2.26638 7.89135 4.91239 7.89135 8.17032C7.89135 11.4282 10.5369 14.0743 13.7943 14.0743C17.0517 14.0743 19.6972 11.4282 19.6972 8.17032C19.6972 4.91239 17.0517 2.26638 13.7943 2.26638Z" fill="#FF9803"/>
</g>
<defs>
<clipPath id="clip0_2077_34">
<rect width="67" height="67" fill="white"/>
</clipPath>
</defs>
</svg>
