<svg width="64" height="67" viewBox="0 0 64 67" fill="none" xmlns="http://www.w3.org/2000/svg">
<g clip-path="url(#clip0_2077_32)">
<path d="M62.8701 67C62.5424 67 62.2147 66.8584 61.9887 66.5807C59.6949 63.7307 56.2882 62.0933 52.6384 62.0933C48.9887 62.0933 45.5763 63.7307 43.2882 66.5807C43.0735 66.847 42.7571 67 42.4181 67C42.1074 67 41.7571 66.8527 41.5424 66.592C39.1695 63.7534 35.6949 62.1159 32 62.0989C28.3051 62.1159 24.8305 63.7534 22.4577 66.592C22.243 66.8527 21.9096 67 21.5819 67C21.243 67 20.9266 66.8414 20.7119 66.5751C18.4181 63.7251 15.0113 62.0876 11.3616 62.0876C7.71189 62.0876 4.29946 63.7251 2.01133 66.5751C1.6215 67.0623 0.909633 67.1417 0.423757 66.745C-0.0621187 66.3541 -0.141215 65.6402 0.254265 65.1529C2.97743 61.7647 7.02828 59.8212 11.3673 59.8212C15.2656 59.8212 18.9322 61.3907 21.6158 64.167C24.3616 61.4134 28.0791 59.8439 32 59.8326H32.0057C35.9266 59.8496 39.6441 61.4134 42.3899 64.167C45.0678 61.3907 48.7345 59.8212 52.6384 59.8212C56.9774 59.8212 61.0283 61.7647 63.7514 65.1529C64.1413 65.6402 64.0678 66.3541 63.5819 66.745C63.3729 66.915 63.1243 66.9943 62.8757 66.9943L62.8701 67ZM52.5367 59.1186C48.2769 59.1186 44.8136 55.6454 44.8136 51.3733C44.8136 47.1011 48.2769 43.6279 52.5367 43.6279C56.7966 43.6279 60.2599 47.1011 60.2599 51.3733C60.2599 55.6454 56.7966 59.1186 52.5367 59.1186ZM52.5367 45.8886C49.5254 45.8886 47.0735 48.3477 47.0735 51.3676C47.0735 54.3876 49.5254 56.8466 52.5367 56.8466C55.548 56.8466 58 54.3876 58 51.3676C58 48.3477 55.548 45.8886 52.5367 45.8886ZM32.2543 59.1186C27.9944 59.1186 24.5311 55.6454 24.5311 51.3733C24.5311 47.1011 27.9944 43.6279 32.2543 43.6279C36.5142 43.6279 39.9774 47.1011 39.9774 51.3733C39.9774 55.6454 36.5142 59.1186 32.2543 59.1186ZM32.2543 45.8886C29.243 45.8886 26.791 48.3477 26.791 51.3676C26.791 54.3876 29.243 56.8466 32.2543 56.8466C35.2656 56.8466 37.7175 54.3876 37.7175 51.3676C37.7175 48.3477 35.2656 45.8886 32.2543 45.8886ZM11.5085 59.1186C7.24862 59.1186 3.78534 55.6454 3.78534 51.3733C3.78534 47.1011 7.24862 43.6279 11.5085 43.6279C15.7684 43.6279 19.2317 47.1011 19.2317 51.3733C19.2317 55.6454 15.7684 59.1186 11.5085 59.1186ZM11.5085 45.8886C8.4972 45.8886 6.04523 48.3477 6.04523 51.3676C6.04523 54.3876 8.4972 56.8466 11.5085 56.8466C14.5198 56.8466 16.9718 54.3876 16.9718 51.3676C16.9718 48.3477 14.5198 45.8886 11.5085 45.8886ZM39.8362 41.6165C39.8362 41.6165 39.7797 41.6165 39.7571 41.6165C39.1356 41.5712 38.6667 41.0329 38.7119 40.404L39.2204 33.2252H22L22.5029 40.319C22.5481 40.9422 22.0791 41.4862 21.4577 41.5315C20.8362 41.5712 20.2938 41.1066 20.2486 40.4833L19.7345 33.2309H17.9831C17.3616 33.2309 16.8531 32.7209 16.8531 32.0977C16.8531 31.4744 17.3616 30.9645 17.9831 30.9645H43.2373C43.8588 30.9645 44.3673 31.4744 44.3673 32.0977C44.3673 32.7209 43.8588 33.2309 43.2373 33.2309H41.4859L40.9661 40.5683C40.9266 41.1632 40.4294 41.6222 39.8418 41.6222L39.8362 41.6165ZM30.5989 41.0272C29.5876 41.0272 28.7684 40.2057 28.7684 39.1915C28.7684 38.1772 29.5876 37.3557 30.5989 37.3557C31.6102 37.3557 32.4294 38.1772 32.4294 39.1915C32.4294 40.2057 31.6102 41.0272 30.5989 41.0272ZM30.5989 38.7608C30.3616 38.7608 30.1695 38.9535 30.1695 39.1915C30.1695 39.4294 30.3616 39.6221 30.5989 39.6221C30.8362 39.6221 31.0283 39.4294 31.0283 39.1915C31.0283 38.9535 30.8362 38.7608 30.5989 38.7608ZM40.0509 27.7009C39.5593 27.7009 39.1074 27.3779 38.9661 26.8793C37.9153 23.1681 34.4972 20.5618 30.6554 20.5448C26.791 20.5221 23.3616 23.0888 22.2712 26.7887C22.0961 27.3893 21.4633 27.7292 20.8644 27.5536C20.2656 27.3779 19.9266 26.7433 20.1017 26.1427C21.469 21.5023 25.7853 18.2784 30.6045 18.2784C30.6271 18.2784 30.6441 18.2784 30.661 18.2784C35.5029 18.3067 39.8136 21.5873 41.1356 26.2617C41.3051 26.8623 40.9605 27.4912 40.356 27.6612C40.2543 27.6896 40.1469 27.7066 40.0452 27.7066L40.0509 27.7009ZM30.6102 17.7458C25.7288 17.7458 21.7627 13.7683 21.7627 8.8729C21.7627 3.97751 25.7288 0 30.6102 0C35.4916 0 39.4576 3.97751 39.4576 8.8729C39.4576 13.7683 35.4916 17.7458 30.6102 17.7458ZM30.6102 2.26638C26.9774 2.26638 24.0226 5.22968 24.0226 8.8729C24.0226 12.5161 26.9774 15.4794 30.6102 15.4794C34.243 15.4794 37.1978 12.5161 37.1978 8.8729C37.1978 5.22968 34.243 2.26638 30.6102 2.26638Z" fill="#01D183"/>
</g>
<defs>
<clipPath id="clip0_2077_32">
<rect width="64" height="67" fill="white"/>
</clipPath>
</defs>
</svg>
