<svg width="66" height="67" viewBox="0 0 66 67" fill="none" xmlns="http://www.w3.org/2000/svg">
<path d="M64.8866 67C64.3898 67 63.9321 66.66 63.8038 66.1444C62.7991 62.1386 59.2549 59.3453 55.1805 59.3453C51.1061 59.3453 47.5619 62.1443 46.5573 66.1444C46.4066 66.7507 45.7982 67.119 45.201 66.9603C44.6038 66.8074 44.241 66.1898 44.3973 65.5835C45.5973 60.8184 49.6717 57.4189 54.4493 57.1016C51.5024 56.7333 49.214 54.1779 49.214 51.09C49.214 47.7471 51.8931 45.0331 55.1805 45.0331C58.4679 45.0331 61.147 47.7527 61.147 51.09C61.147 54.1779 58.8586 56.7333 55.9117 57.1016C60.6893 57.4189 64.7638 60.8184 65.9638 65.5835C66.1145 66.1898 65.7572 66.8074 65.16 66.9603C65.0652 66.983 64.9759 66.9943 64.881 66.9943L64.8866 67ZM55.1805 47.2995C53.121 47.2995 51.4466 48.9992 51.4466 51.09C51.4466 53.1807 53.121 54.8805 55.1805 54.8805C57.24 54.8805 58.9145 53.1807 58.9145 51.09C58.9145 48.9992 57.24 47.2995 55.1805 47.2995ZM20.5256 67C20.0289 67 19.5712 66.66 19.4428 66.1444C18.4382 62.1386 14.894 59.3453 10.8196 59.3453C6.74516 59.3453 3.20098 62.1443 2.19633 66.1444C2.04563 66.7507 1.43726 67.119 0.840046 66.9603C0.242837 66.8074 -0.119954 66.1898 0.0363255 65.5835C1.23633 60.8184 5.31074 57.4189 10.0884 57.1016C7.14144 56.7333 4.85307 54.1779 4.85307 51.09C4.85307 47.7471 7.53214 45.0331 10.8196 45.0331C14.107 45.0331 16.7861 47.7527 16.7861 51.09C16.7861 54.1779 14.4977 56.7333 11.5507 57.1016C16.3284 57.4189 20.4028 60.8184 21.6028 65.5835C21.7535 66.1898 21.3963 66.8074 20.7991 66.9603C20.7042 66.983 20.6149 66.9943 20.52 66.9943L20.5256 67ZM10.8252 47.2995C8.76563 47.2995 7.09121 48.9992 7.09121 51.09C7.09121 53.1807 8.76563 54.8805 10.8252 54.8805C12.8847 54.8805 14.5591 53.1807 14.5591 51.09C14.5591 48.9992 12.8847 47.2995 10.8252 47.2995ZM33 61.3567C30.014 61.3567 27.028 60.8694 24.187 59.9006C23.601 59.7022 23.2884 59.0563 23.4838 58.4671C23.6791 57.8721 24.3154 57.5548 24.8959 57.7532C30.12 59.5379 35.8745 59.5379 41.0931 57.7532C41.6791 57.5548 42.3098 57.8721 42.5052 58.4671C42.7005 59.062 42.388 59.7022 41.8019 59.9006C38.961 60.8694 35.9749 61.3567 32.9889 61.3567H33ZM33 51.5319C31.4261 51.5319 30.0196 50.4611 29.5731 48.9312L28.7582 46.2173C28.6466 45.849 28.2726 45.628 27.9042 45.713L25.1861 46.3532C23.6345 46.7045 22.0661 46.0076 21.2791 44.6138C20.4921 43.22 20.6819 41.4918 21.7591 40.3133L23.6624 38.2282C23.9191 37.945 23.9191 37.4973 23.6624 37.214L21.7591 35.129C20.6819 33.9504 20.4866 32.2223 21.2791 30.8285C22.0661 29.4347 23.6345 28.7378 25.1805 29.0891L27.9098 29.735C28.2726 29.82 28.6521 29.599 28.7582 29.2307L29.5787 26.5054C30.0196 24.9812 31.4317 23.9104 33.0056 23.9104C34.5796 23.9104 35.9861 24.9812 36.4326 26.511L37.2475 29.2307C37.3591 29.599 37.7331 29.82 38.1014 29.735L40.8196 29.0947C42.3712 28.7434 43.9396 29.4403 44.7266 30.8342C45.5135 32.228 45.3238 33.9561 44.2466 35.1346L42.3433 37.2197C42.0866 37.503 42.0866 37.9506 42.3433 38.2339L44.2466 40.319C45.3238 41.4975 45.5191 43.2256 44.7266 44.6195C43.9396 46.0133 42.3656 46.7102 40.8252 46.3589L38.0959 45.713C37.7331 45.628 37.3535 45.849 37.2475 46.2173L36.427 48.9426C35.9861 50.4667 34.5796 51.5376 33 51.5376V51.5319ZM28.0605 43.4239C29.3386 43.4239 30.5107 44.2682 30.8903 45.5543L31.7052 48.274C31.8726 48.8576 32.4028 49.2599 32.9945 49.2599C33.5861 49.2599 34.1107 48.8576 34.2782 48.2853L35.0987 45.5487C35.5452 44.0472 37.08 43.1463 38.587 43.4976L41.3107 44.1378C41.8912 44.2682 42.4828 44.0075 42.7786 43.4749C43.08 42.948 43.0019 42.2964 42.5945 41.8488L40.6912 39.7637C39.6475 38.6135 39.6475 36.8174 40.6912 35.6672L42.6 33.5822C43.0075 33.1345 43.08 32.483 42.7842 31.956C42.4828 31.4291 41.8912 31.1628 41.3052 31.2988L38.5926 31.939C37.08 32.2903 35.5507 31.3894 35.0987 29.888L34.2838 27.1683C34.2838 27.1683 34.2838 27.1626 34.2838 27.157C34.1163 26.579 33.5861 26.1824 33 26.1824C32.414 26.1824 31.8838 26.5847 31.7163 27.157L30.8959 29.8936C30.4493 31.3951 28.9145 32.296 27.4075 31.9447L24.6838 31.3044C24.1089 31.1741 23.5117 31.4404 23.2159 31.9674C22.92 32.4943 22.9926 33.1459 23.4 33.5935L25.3033 35.6786C26.347 36.8288 26.347 38.6249 25.3033 39.7751L23.4 41.8601C22.9926 42.3077 22.92 42.9593 23.2159 43.4863C23.5173 44.0132 24.1089 44.2795 24.6949 44.1435L27.4075 43.5033C27.6307 43.4523 27.8484 43.4296 28.0661 43.4296L28.0605 43.4239ZM33 41.6675C30.8568 41.6675 29.1098 39.894 29.1098 37.7183C29.1098 35.5426 30.8568 33.7691 33 33.7691C35.1433 33.7691 36.8903 35.5426 36.8903 37.7183C36.8903 39.894 35.1433 41.6675 33 41.6675ZM33 36.0412C32.0847 36.0412 31.3424 36.7948 31.3424 37.724C31.3424 38.6532 32.0847 39.4068 33 39.4068C33.9154 39.4068 34.6577 38.6532 34.6577 37.724C34.6577 36.7948 33.9154 36.0412 33 36.0412ZM59.0149 38.8515C58.9591 38.8515 58.8977 38.8515 58.8363 38.8345C58.228 38.7382 57.8149 38.1546 57.9098 37.537C59.6456 26.4487 54.1703 15.6154 44.28 10.584C43.7275 10.3064 43.5042 9.6208 43.7833 9.06554C44.0568 8.50461 44.7321 8.27797 45.2791 8.56127C56.0456 14.0346 62.0066 25.8255 60.1145 37.894C60.0252 38.4492 59.5507 38.8515 59.0149 38.8515ZM6.99074 38.8515C6.44935 38.8515 5.97493 38.4549 5.89121 37.894C3.99912 25.8198 9.96563 14.0346 20.7321 8.56127C21.2847 8.28364 21.9545 8.51027 22.228 9.06554C22.5014 9.62647 22.2782 10.3064 21.7312 10.584C11.8354 15.6154 6.36005 26.443 8.09586 37.537C8.19074 38.1546 7.77772 38.7382 7.16935 38.8345C7.10795 38.8458 7.05214 38.8515 6.99074 38.8515ZM42.7061 21.9669C42.2093 21.9669 41.7517 21.627 41.6233 21.1114C40.6186 17.1055 37.0745 14.3122 33 14.3122C28.9256 14.3122 25.3814 17.1112 24.3768 21.1114C24.2261 21.7176 23.6177 22.0859 23.0205 21.9273C22.4233 21.7743 22.0605 21.1567 22.2168 20.5504C23.4168 15.7854 27.4912 12.3858 32.2689 12.0685C29.3219 11.7002 27.0335 9.14486 27.0335 6.05691C27.0335 2.714 29.7126 0 33 0C36.2875 0 38.9666 2.71966 38.9666 6.05691C38.9666 9.14486 36.6782 11.7002 33.7312 12.0685C38.5089 12.3858 42.5833 15.7854 43.7833 20.5504C43.934 21.1567 43.5768 21.7743 42.9796 21.9273C42.8847 21.9499 42.7954 21.9613 42.7005 21.9613L42.7061 21.9669ZM33 2.26638C30.9405 2.26638 29.2661 3.96617 29.2661 6.05691C29.2661 8.14765 30.9405 9.84744 33 9.84744C35.0596 9.84744 36.734 8.14765 36.734 6.05691C36.734 3.96617 35.0596 2.26638 33 2.26638Z" fill="#FFA001"/>
</svg>
