<svg width="68" height="67" viewBox="0 0 68 67" fill="none" xmlns="http://www.w3.org/2000/svg">
<path d="M51.798 67C51.7365 67 51.6854 67 51.624 66.9796C51.5523 66.9694 51.4806 66.9491 51.409 66.9185C51.2452 66.8574 51.1121 66.7555 51.0097 66.623C50.9483 66.5415 50.8869 66.4498 50.846 66.3581C50.846 66.3377 50.8357 66.3174 50.8255 66.297C50.805 66.246 49.1978 62.6291 39.002 62.3744C37.5075 62.3744 36.2688 61.274 36.2688 59.9088V43.1588C36.2688 41.7324 37.5484 40.6931 39.3194 40.6931C47.0379 41.1007 50.3853 43.1486 51.7877 44.5954C53.1902 43.1588 56.5273 41.1007 64.2049 40.7033C66.027 40.7033 67.3066 41.7425 67.3066 43.1689V59.919C67.3066 61.274 66.068 62.3846 64.5427 62.3846C54.3879 62.6393 52.8012 66.1849 52.75 66.3072C52.7397 66.3479 52.7193 66.3887 52.6988 66.4294C52.6271 66.5823 52.5146 66.7147 52.3917 66.8064C52.2996 66.8777 52.1972 66.9287 52.0846 66.9592C51.9925 66.9898 51.8901 67 51.7877 67H51.798ZM39.2784 42.7512C38.7359 42.7512 38.3264 42.9754 38.3264 43.1791V59.9291C38.3264 60.1431 38.6847 60.3571 39.043 60.3571C45.4921 60.5201 48.9522 61.9567 50.7845 63.3016V46.6025C50.3955 45.981 48.1639 43.2199 39.2784 42.7512ZM52.8216 46.5923V63.2914C54.654 61.9465 58.1038 60.5099 64.5325 60.3469C64.9215 60.3469 65.2798 60.1329 65.2798 59.919V43.1689C65.2798 42.9652 64.8703 42.741 64.2766 42.741C55.4422 43.2097 53.2209 45.9606 52.8216 46.5923ZM21.9169 61.2231H19.0199C18.4569 61.2231 17.9962 60.7646 17.9962 60.2042C17.9962 59.6439 18.4569 59.1854 19.0199 59.1854H21.057L22.7256 49.6693H5.08767C2.19067 49.6693 0 47.4889 0 44.6055V5.06372C0 2.18035 2.19067 0 5.08767 0H56.7321C59.6291 0 61.8198 2.18035 61.8198 5.06372V33.9381C61.8198 34.4985 61.3591 34.957 60.7961 34.957C60.2331 34.957 59.7724 34.4985 59.7724 33.9381V5.06372C59.7724 3.31128 58.4928 2.03771 56.7321 2.03771H5.08767C3.32695 2.03771 2.04735 3.31128 2.04735 5.06372V44.6259C2.04735 46.3783 3.32695 47.6519 5.08767 47.6519H27.7109C28.2739 47.6519 28.7346 48.1104 28.7346 48.6708C28.7346 49.2311 28.2739 49.6896 27.7109 49.6896H24.8037L23.1351 59.2058H26.9943C27.5573 59.2058 28.018 59.6642 28.018 60.2246C28.018 60.785 27.5573 61.2435 26.9943 61.2435H21.9169V61.2231ZM41.4998 35.3849C40.9368 35.3849 40.4761 34.9264 40.4761 34.366C40.4761 29.4348 36.5964 25.5631 31.6316 25.5631C26.6667 25.5631 22.787 29.4246 22.787 34.366C22.787 34.9264 22.3264 35.3849 21.7633 35.3849C21.2003 35.3849 20.7397 34.9264 20.7397 34.366C20.7397 28.2936 25.5202 23.5254 31.6316 23.5254C37.7429 23.5254 42.5235 28.2835 42.5235 34.366C42.5235 34.9264 42.0628 35.3849 41.4998 35.3849ZM31.6418 22.3945C27.5573 22.3945 24.2407 19.0832 24.2407 15.0281C24.2407 10.9731 27.5676 7.6618 31.6418 7.6618C35.716 7.6618 39.0532 10.9731 39.0532 15.0281C39.0532 19.0832 35.7263 22.3945 31.6418 22.3945ZM31.6418 9.68933C28.6834 9.68933 26.288 12.0836 26.288 15.0179C26.288 17.9523 28.6936 20.3466 31.6418 20.3466C34.59 20.3466 37.0058 17.9523 37.0058 15.0179C37.0058 12.0836 34.6002 9.68933 31.6418 9.68933Z" fill="#9789FA"/>
</svg>
