<svg width="63" height="67" viewBox="0 0 63 67" fill="none" xmlns="http://www.w3.org/2000/svg">
<path d="M0.982224 66.9964C0.766845 66.9964 0.551465 66.9266 0.365456 66.777C-0.0555126 66.428 -0.124042 65.7999 0.218606 65.3711C2.88148 62.0008 6.84641 60.0764 11.0953 60.0764C14.9623 60.0764 18.5944 61.6718 21.2279 64.5036C23.9299 61.7017 27.6109 60.1063 31.4975 60.0864H31.5073C35.394 60.1063 39.075 61.7017 41.777 64.5036C44.4105 61.6818 48.0426 60.0764 51.9096 60.0764C56.1585 60.0764 60.1234 62.0108 62.7863 65.3711C63.1289 65.7999 63.0604 66.428 62.6394 66.777C62.2185 67.126 61.6017 67.0562 61.259 66.6275C58.9682 63.7358 55.5613 62.0706 51.9096 62.0706C48.258 62.0706 44.8511 63.7358 42.5602 66.6275C42.3742 66.8568 42.1001 66.9964 41.8064 66.9964C41.5421 67.0263 41.2386 66.8668 41.0428 66.6374C38.6736 63.7558 35.1982 62.0906 31.5073 62.0806C27.8165 62.1005 24.3411 63.7558 21.9719 66.6374C21.7859 66.8668 21.5118 66.9864 21.2083 66.9964C20.9146 66.9964 20.6405 66.8568 20.4545 66.6275C18.1636 63.7358 14.7567 62.0706 11.105 62.0706C7.45339 62.0706 4.04648 63.7358 1.75563 66.6275C1.55983 66.8767 1.27592 66.9964 0.992014 66.9964H0.982224ZM51.7921 59.0892C47.6608 59.0892 44.293 55.6592 44.293 51.4513C44.293 47.2435 47.6608 43.8134 51.7921 43.8134C55.9235 43.8134 59.2913 47.2435 59.2913 51.4513C59.2913 55.6592 55.9235 59.0892 51.7921 59.0892ZM51.7921 45.8076C48.7377 45.8076 46.251 48.3403 46.251 51.4513C46.251 54.5623 48.7377 57.095 51.7921 57.095C54.8466 57.095 57.3333 54.5623 57.3333 51.4513C57.3333 48.3403 54.8466 45.8076 51.7921 45.8076ZM31.7423 59.0892C27.6109 59.0892 24.2432 55.6592 24.2432 51.4513C24.2432 47.2435 27.6109 43.8134 31.7423 43.8134C35.8737 43.8134 39.2414 47.2435 39.2414 51.4513C39.2414 55.6592 35.8737 59.0892 31.7423 59.0892ZM31.7423 45.8076C28.6878 45.8076 26.2012 48.3403 26.2012 51.4513C26.2012 54.5623 28.6878 57.095 31.7423 57.095C34.7968 57.095 37.2834 54.5623 37.2834 51.4513C37.2834 48.3403 34.7968 45.8076 31.7423 45.8076ZM11.2323 59.0892C7.10095 59.0892 3.7332 55.6592 3.7332 51.4513C3.7332 47.2435 7.10095 43.8134 11.2323 43.8134C15.3637 43.8134 18.7314 47.2435 18.7314 51.4513C18.7314 55.6592 15.3637 59.0892 11.2323 59.0892ZM11.2323 45.8076C8.17785 45.8076 5.6912 48.3403 5.6912 51.4513C5.6912 54.5623 8.17785 57.095 11.2323 57.095C14.2868 57.095 16.7734 54.5623 16.7734 51.4513C16.7734 48.3403 14.2868 45.8076 11.2323 45.8076ZM46.7601 38.7381C46.4664 38.7381 46.1727 38.5985 45.9769 38.3392L41.8162 32.6855C41.4931 32.2468 41.5812 31.6186 42.012 31.2896C42.4427 30.9605 43.0595 31.0503 43.3826 31.489L47.5433 37.1427C47.8664 37.5814 47.7783 38.2096 47.3475 38.5386C47.1713 38.6782 46.9657 38.7381 46.7601 38.7381ZM16.2448 38.7381C16.0392 38.7381 15.8336 38.6782 15.6574 38.5386C15.2266 38.2096 15.1385 37.5814 15.4616 37.1427L19.6223 31.489C19.9454 31.0503 20.5622 30.9605 20.9929 31.2896C21.4237 31.6186 21.5118 32.2468 21.1887 32.6855L17.028 38.3392C16.8322 38.5985 16.5385 38.7381 16.2448 38.7381ZM31.4975 38.7381C30.9591 38.7381 30.5186 38.2894 30.5186 37.7409V32.0873C30.5186 31.5389 30.9591 31.0902 31.4975 31.0902C32.036 31.0902 32.4765 31.5389 32.4765 32.0873V37.7409C32.4765 38.2894 32.036 38.7381 31.4975 38.7381ZM43.9895 27.4407H19.0153C18.7119 27.4407 18.4279 27.3011 18.2419 27.0518C18.0559 26.8125 17.9874 26.4934 18.0657 26.1943C19.6321 19.9324 25.1536 15.565 31.4975 15.565C37.8414 15.565 43.363 19.9324 44.9294 26.1943C45.0077 26.4934 44.9294 26.8125 44.7532 27.0518C44.5672 27.2911 44.2832 27.4407 43.9798 27.4407H43.9895ZM20.3468 25.4465H42.6581C40.9351 20.7401 36.5198 17.5593 31.5073 17.5593C26.4949 17.5593 22.0698 20.7401 20.3566 25.4465H20.3468ZM31.4975 14.7175C27.513 14.7175 24.2726 11.417 24.2726 7.35874C24.2726 3.30046 27.513 0 31.4975 0C35.4821 0 38.7225 3.30046 38.7225 7.35874C38.7225 11.417 35.4821 14.7175 31.4975 14.7175ZM31.4975 2.00421C28.5997 2.00421 26.2305 4.40726 26.2305 7.36871C26.2305 10.3301 28.5899 12.7332 31.4975 12.7332C34.4052 12.7332 36.7645 10.3301 36.7645 7.36871C36.7645 4.40726 34.4052 2.00421 31.4975 2.00421Z" fill="#FFA001"/>
</svg>
