<svg width="67" height="67" viewBox="0 0 67 67" fill="none" xmlns="http://www.w3.org/2000/svg">
<path d="M65.5174 66.9898H49.6371C49.2234 66.9898 48.8703 66.7352 48.7089 66.3786C48.5575 66.7352 48.1943 66.9898 47.7806 66.9898H18.6633C18.2496 66.9898 17.8864 66.7352 17.735 66.3684C17.5837 66.7352 17.2205 66.9898 16.8068 66.9898H1.00717C0.694409 66.9898 0.401822 66.8472 0.210127 66.5926C0.0184324 66.3379 -0.042103 66.0221 0.0285213 65.7165C1.04753 61.7032 3.90277 58.3315 7.67613 56.7017C11.4495 55.0719 15.8383 55.3062 19.4199 57.3333C19.6015 57.4351 19.7428 57.5879 19.8235 57.7611C21.1553 55.4895 23.042 53.5643 25.3726 52.1892C30.2154 49.3371 36.2285 49.3371 41.0713 52.1892C43.4019 53.5643 45.2987 55.4997 46.6305 57.7713C46.7213 57.6185 46.8424 57.4759 47.0139 57.3842C50.5955 55.3164 55.0045 55.0515 58.8081 56.6813C62.6118 58.3111 65.4872 61.6828 66.5062 65.7267C66.5869 66.0323 66.5163 66.3583 66.3246 66.6027C66.1329 66.8472 65.8403 67 65.5275 67L65.5174 66.9898ZM2.3793 64.9526H16.7968C17.1499 64.9526 17.4727 65.1359 17.6442 65.4211C17.6947 63.2515 18.179 61.1429 19.0567 59.2279C18.8449 59.2585 18.6229 59.2279 18.4211 59.1057C15.3843 57.3842 11.6614 57.1906 8.46308 58.576C5.66838 59.7881 3.46894 62.1208 2.3793 64.9526ZM47.4074 59.289C48.2649 61.1938 48.7492 63.2718 48.7896 65.4211C48.9712 65.1461 49.2839 64.9628 49.6371 64.9628H64.1453C63.0557 62.1106 60.826 59.7678 58.0111 58.5658C54.7825 57.1906 51.0496 57.4147 48.0127 59.1668C47.821 59.2788 47.6091 59.3094 47.4074 59.2992V59.289ZM19.6923 64.9526H46.7516C46.4792 60.4095 43.977 56.2637 40.0523 53.9514C35.8451 51.466 30.5988 51.466 26.3916 53.9514C22.4669 56.2637 19.9648 60.4197 19.6923 64.9526ZM53.6122 54.9599C49.7682 54.9599 46.6507 51.8021 46.6507 47.9314C46.6507 44.0606 49.7783 40.9028 53.6122 40.9028C57.4461 40.9028 60.5737 44.0606 60.5737 47.9314C60.5737 51.8021 57.4461 54.9599 53.6122 54.9599ZM53.6122 42.9401C50.8881 42.9401 48.6685 45.1811 48.6685 47.9314C48.6685 50.6816 50.8881 52.9226 53.6122 52.9226C56.3363 52.9226 58.5559 50.6816 58.5559 47.9314C58.5559 45.1811 56.3363 42.9401 53.6122 42.9401ZM12.9124 54.9599C9.06843 54.9599 5.95088 51.8021 5.95088 47.9314C5.95088 44.0606 9.07852 40.9028 12.9124 40.9028C16.7463 40.9028 19.874 44.0606 19.874 47.9314C19.874 51.8021 16.7463 54.9599 12.9124 54.9599ZM12.9124 42.9401C10.1883 42.9401 7.96872 45.1811 7.96872 47.9314C7.96872 50.6816 10.1883 52.9226 12.9124 52.9226C15.6365 52.9226 17.8561 50.6816 17.8561 47.9314C17.8561 45.1811 15.6365 42.9401 12.9124 42.9401ZM33.0706 48.2777C27.7738 48.2777 23.4556 43.9282 23.4556 38.5702C23.4556 36.7978 23.9298 35.1273 24.7571 33.7012C24.7773 33.6604 24.7975 33.6197 24.8277 33.5891C26.5126 30.7675 29.5798 28.8729 33.0706 28.8729C37.8932 28.8729 41.8987 32.4788 42.5847 37.1645C42.6049 37.2358 42.6049 37.2969 42.615 37.3682C42.6654 37.7655 42.6856 38.1628 42.6856 38.5804C42.6856 43.9282 38.3775 48.2879 33.0706 48.2879V48.2777ZM25.9678 35.8607C25.645 36.7061 25.4735 37.6229 25.4735 38.5804C25.4735 42.8077 28.8836 46.2506 33.0706 46.2506C37.2576 46.2506 40.5164 42.9503 40.6577 38.8554C35.6131 40.4954 29.9934 39.3545 25.9678 35.8708V35.8607ZM26.9667 34.0271C30.5887 37.3784 35.825 38.448 40.4559 36.7672C39.6488 33.4058 36.6422 30.9101 33.0706 30.9101C30.5685 30.9101 28.3489 32.1325 26.9667 34.0271ZM51.8062 36.6857C51.5439 36.6857 51.2917 36.5839 51.0899 36.3903C50.7267 36.0236 42.2215 27.345 42.2215 19.797C42.2215 19.2367 42.6755 18.7783 43.2304 18.7783H53.2591L33.222 2.33774L13.1848 18.7681H23.2135C23.7684 18.7681 24.2224 19.2265 24.2224 19.7868C24.2224 27.3348 15.7071 36.0236 15.354 36.3802C14.9605 36.7774 14.3249 36.7774 13.9314 36.3802C13.5379 35.9829 13.5379 35.3412 13.9314 34.9439C14.0121 34.8624 21.4176 27.3144 22.1541 20.8054H10.3598C9.9361 20.8054 9.55271 20.5304 9.41146 20.1229C9.27021 19.7155 9.39129 19.2673 9.72423 18.9922L32.5863 0.22919C32.9596 -0.0763968 33.4843 -0.0763968 33.8576 0.22919L56.7298 18.9922C57.0627 19.2673 57.1838 19.7155 57.0425 20.1229C56.9013 20.5304 56.5179 20.8054 56.0941 20.8054H44.2999C45.0364 27.3144 52.4419 34.8624 52.5226 34.9439C52.9161 35.3412 52.9161 35.9829 52.5226 36.3802C52.3208 36.5839 52.0686 36.6756 51.8062 36.6756V36.6857Z" fill="#1EABDA"/>
</svg>
