<svg width="63" height="67" viewBox="0 0 63 67" fill="none" xmlns="http://www.w3.org/2000/svg">
<path d="M24.6302 67C24.0996 67 23.6655 66.5512 23.6655 66.0027V55.6505C23.6655 55.4311 23.733 55.2117 23.8681 55.0421L40.1822 33.1908C41.089 31.8644 40.8285 30.0094 39.5454 28.9921C38.2623 27.9748 36.4582 28.1843 35.4355 29.4708L26.2124 41.6082C24.7846 43.4932 22.6332 44.5802 20.3081 44.5802H8.85646C7.00413 44.5802 5.26758 45.3282 3.95551 46.6746C2.64344 48.031 1.92951 49.8261 1.92951 51.741V61.2654C1.9681 62.921 3.28017 64.2374 4.91061 64.2374C6.37704 64.2374 7.59264 63.1603 7.84348 61.7142V61.1358C7.84348 61.0261 7.86276 60.9263 7.89171 60.8266V53.1073C7.89171 52.5588 8.32585 52.11 8.85646 52.11C9.38708 52.11 9.82122 52.5588 9.82122 53.1073V61.2654C9.82122 61.4649 9.80194 61.6643 9.77299 61.8538V65.9927C9.77299 66.5412 9.33885 66.99 8.80824 66.99C8.27762 66.99 7.84348 66.5412 7.84348 65.9927V65.2347C7.02344 65.8631 6.01043 66.2321 4.91061 66.2321C2.22859 66.2321 0.0771806 64.0579 0 61.2854V51.741C0 49.2976 0.916512 46.9938 2.58554 45.2584C4.25457 43.5231 6.48315 42.5756 8.84681 42.5756H20.2985C22.0254 42.5756 23.6173 41.7678 24.6785 40.3715L33.9208 28.2142C35.6285 26.0799 38.5999 25.7309 40.7128 27.3964C42.8159 29.0719 43.2597 32.1337 41.7257 34.3677L25.595 55.9696V65.9728C25.595 66.5213 25.1608 66.9701 24.6302 66.9701V67ZM58.2714 37.6887H47.8809C47.3503 37.6887 46.9161 37.24 46.9161 36.6914C46.9161 36.1429 47.3503 35.6941 47.8809 35.6941H57.3066V8.00849H25.0644V15.0795C25.0644 15.628 24.6302 16.0768 24.0996 16.0768C23.569 16.0768 23.1349 15.628 23.1349 15.0795V8.00849C21.6491 7.94865 19.5653 6.91143 19.5653 4.18875V3.81974C19.5653 2.28386 20.5493 0 23.2603 0H59.1107C60.5964 0 62.8057 1.01727 62.8057 3.81974V4.18875C62.8057 5.70467 61.8506 7.93867 59.2361 8.00849V36.6914C59.2361 37.24 58.802 37.6887 58.2714 37.6887ZM58.2714 6.01384H59.1107C60.799 6.01384 60.8761 4.48794 60.8761 4.18875V3.81974C60.8761 2.07443 59.4001 1.99464 59.1107 1.99464H23.2603C21.572 1.99464 21.4948 3.52054 21.4948 3.81974V4.18875C21.4948 5.93406 22.9709 6.01384 23.2603 6.01384H58.2714ZM15.6484 37.21C11.3455 37.21 7.85311 33.5898 7.85311 29.1517C7.85311 24.7136 11.3552 21.0834 15.6484 21.0834C19.9415 21.0834 23.4436 24.7036 23.4436 29.1517C23.4436 33.5997 19.9415 37.21 15.6484 37.21ZM15.6484 23.078C12.4068 23.078 9.78262 25.8007 9.78262 29.1517C9.78262 32.5027 12.4164 35.2154 15.6484 35.2154C18.8803 35.2154 21.5141 32.4927 21.5141 29.1517C21.5141 25.8107 18.8803 23.078 15.6484 23.078ZM50.4858 22.8486C50.177 22.8486 49.8779 22.699 49.685 22.4098L46.3373 17.3534L37.9149 21.2529C37.6062 21.3925 37.2493 21.3626 36.9695 21.1631L31.5379 17.2437C31.1038 16.9245 30.9976 16.3062 31.2967 15.8574C31.5958 15.4086 32.2036 15.2889 32.6377 15.6081L37.6255 19.1984L46.289 15.1892C46.7135 14.9897 47.2152 15.1393 47.4757 15.5383L51.2769 21.2828C51.5759 21.7416 51.4698 22.3599 51.026 22.6691C50.862 22.7888 50.6691 22.8386 50.4858 22.8386V22.8486Z" fill="#D52029"/>
</svg>
