<svg width="65" height="67" viewBox="0 0 65 67" fill="none" xmlns="http://www.w3.org/2000/svg">
<path d="M63.5848 67C62.9695 67 62.466 66.4901 62.466 65.8668V63.5664C62.3094 58.9147 58.5559 55.2431 53.9243 55.2431C49.2926 55.2431 45.5392 58.9147 45.3825 63.6061V65.8668C45.3825 66.4901 44.8847 67 44.2638 67C43.6429 67 43.145 66.4901 43.145 65.8668V63.5664C42.9716 58.9373 39.2182 55.2828 34.6089 55.2828C29.9996 55.2828 26.2461 58.943 26.0671 63.6118V65.8668C26.0671 66.4901 25.5693 67 24.9484 67C24.3275 67 23.8296 66.4901 23.8296 65.8668V63.5664C24.0534 57.6285 28.7857 53.0164 34.6033 53.0164C38.8322 53.0164 42.4849 55.4528 44.2526 59.0393C46.0146 55.4188 49.673 52.9767 53.9187 52.9767C59.7642 52.9767 64.4966 57.6115 64.6979 63.5268V65.8668C64.6979 66.4901 64.2001 67 63.5792 67H63.5848ZM54.1145 50.0531C52.3412 50.0531 50.6687 49.3732 49.4101 48.1437C48.1403 46.9028 47.4411 45.2484 47.4411 43.4863C47.4411 41.7241 48.1403 40.0697 49.4101 38.8288C50.6687 37.5993 52.3412 36.9194 54.1145 36.9194C55.8877 36.9194 57.5602 37.5993 58.8189 38.8288C60.0886 40.0697 60.7879 41.7241 60.7879 43.4863C60.7879 45.2484 60.0886 46.9028 58.8189 48.1437C57.5602 49.3732 55.8877 50.0531 54.1145 50.0531ZM54.1145 39.1801C52.923 39.1801 51.8042 39.6334 50.9651 40.455C50.1373 41.2652 49.6786 42.3417 49.6786 43.4863C49.6786 44.6308 50.1317 45.7073 50.9651 46.5175C51.8042 47.3391 52.923 47.7924 54.1145 47.7924C55.3059 47.7924 56.4247 47.3391 57.2638 46.5175C58.0917 45.7073 58.5504 44.6308 58.5504 43.4863C58.5504 42.3417 58.0917 41.2709 57.2638 40.455C56.4247 39.6334 55.3059 39.1801 54.1145 39.1801ZM34.7991 50.0531C33.0258 50.0531 31.3533 49.3732 30.0947 48.1437C28.8249 46.9028 28.1256 45.2484 28.1256 43.4863C28.1256 41.7241 28.8249 40.0697 30.0947 38.8288C31.3533 37.5993 33.0258 36.9194 34.7991 36.9194C36.5723 36.9194 38.2448 37.5993 39.5034 38.8288C40.7732 40.0697 41.4725 41.7241 41.4725 43.4863C41.4725 45.2484 40.7732 46.9028 39.5034 48.1437C38.2448 49.3732 36.5723 50.0531 34.7991 50.0531ZM34.7991 39.1801C33.6076 39.1801 32.4888 39.6334 31.6497 40.455C30.8219 41.2652 30.3632 42.3417 30.3632 43.4863C30.3632 44.6308 30.8163 45.7073 31.6497 46.5175C32.4888 47.3391 33.6076 47.7924 34.7991 47.7924C35.9905 47.7924 37.1093 47.3391 37.9484 46.5175C38.7763 45.7073 39.2349 44.6308 39.2349 43.4863C39.2349 42.3417 38.7763 41.2652 37.9484 40.455C37.1093 39.6334 35.9905 39.1801 34.7991 39.1801ZM22.5822 42.0981C21.9669 42.0981 21.4634 41.5882 21.4634 40.9649V34.1544C21.4634 33.9051 21.5417 33.6615 21.6928 33.4688L37.1149 13.043C38.2281 11.4962 37.9092 9.23552 36.3709 8.04567C34.8326 6.85581 32.5951 7.12778 31.3868 8.66326L23.0297 19.5362C22.2186 20.5901 20.9991 21.1907 19.6846 21.1907H10.5331C8.31799 21.1907 6.23709 22.0633 4.67083 23.6441C3.09897 25.2305 2.23752 27.3439 2.23752 29.5933V40.7269C2.23752 41.3502 1.73408 41.8601 1.11876 41.8601C0.503442 41.8601 0 41.3502 0 40.7269V29.5933C0 26.7377 1.09639 24.0577 3.09337 22.0406C5.08477 20.0292 7.72504 18.9243 10.5331 18.9243H19.6846C20.3111 18.9356 20.8873 18.641 21.2732 18.1424L29.636 7.2581C31.6106 4.75941 35.241 4.3118 37.7358 6.24956C40.2306 8.18165 40.7565 11.8475 38.9049 14.4199L38.8042 14.5502L23.7121 34.5454V40.9706C23.7121 41.5938 23.2087 42.1038 22.5934 42.1038L22.5822 42.0981ZM58.5336 31.9617C57.9183 31.9617 57.4148 31.4518 57.4148 30.8285V26.7207H36.6842C36.0689 26.7207 35.5654 26.2107 35.5654 25.5875C35.5654 24.9642 36.0689 24.4543 36.6842 24.4543H61.0284C61.9794 24.4543 62.7513 23.6724 62.7513 22.7092V4.0115C62.7513 3.04829 61.9794 2.26638 61.0284 2.26638H38.9553C38.3399 2.26638 37.8365 1.75645 37.8365 1.13319C37.8365 0.509937 38.3343 0 38.9553 0H61.0284C63.21 0 64.9888 1.79611 64.9888 4.00584V22.7092C64.9888 24.9189 63.21 26.7207 61.0284 26.7207H59.6523V30.8285C59.6523 31.4518 59.1489 31.9617 58.5336 31.9617ZM12.6196 31.9617C12.0043 31.9617 11.5009 31.4518 11.5009 30.8285V26.494C11.5009 25.8708 12.0043 25.3608 12.6196 25.3608C13.2349 25.3608 13.7384 25.8708 13.7384 26.494V30.8285C13.7384 31.4518 13.2349 31.9617 12.6196 31.9617ZM56.8834 18.386C56.5142 18.386 56.1506 18.1991 55.938 17.8591L53.9411 14.6522L50.0981 16.9639C49.6282 17.2472 49.0241 17.1452 48.6717 16.7203L45.0861 12.4028C44.6889 11.9212 44.7504 11.2073 45.2203 10.805C45.6958 10.4027 46.4006 10.465 46.7978 10.941L49.7681 14.5219L53.7285 12.1365C54.2487 11.8192 54.9256 11.9835 55.2444 12.5048L57.8232 16.6466C58.1532 17.1735 57.9966 17.8761 57.4707 18.2104C57.2862 18.3294 57.0792 18.386 56.8778 18.386H56.8834ZM12.6196 16.9696C10.3821 16.9696 8.27883 16.0857 6.69578 14.4822C5.11274 12.8787 4.2457 10.7483 4.2457 8.48195C4.2457 6.21556 5.11833 4.08516 6.69578 2.48169C8.28442 0.88389 10.3821 0 12.6196 0C14.8571 0 16.9604 0.88389 18.5435 2.48736C20.1265 4.09082 20.9935 6.22123 20.9935 8.48761C20.9935 10.754 20.1209 12.8844 18.5435 14.4879C16.9604 16.0913 14.8571 16.9752 12.6196 16.9752V16.9696ZM12.6196 2.26638C10.9806 2.26638 9.43675 2.9123 8.27883 4.08516C7.12091 5.25801 6.48322 6.82182 6.48322 8.48195C6.48322 10.1421 7.12091 11.7059 8.27883 12.8787C9.43675 14.0516 10.9806 14.6975 12.6196 14.6975C14.2586 14.6975 15.8025 14.0516 16.9604 12.8787C18.1183 11.7059 18.756 10.1421 18.756 8.48195C18.756 6.82182 18.1183 5.25801 16.9604 4.08516C15.8025 2.9123 14.2586 2.26638 12.6196 2.26638Z" fill="#D52029"/>
</svg>
