<svg width="64" height="67" viewBox="0 0 64 67" fill="none" xmlns="http://www.w3.org/2000/svg">
<path d="M62.8681 67C62.5404 67 62.2128 66.8584 61.9868 66.5807C59.693 63.7307 56.2862 62.0933 52.6365 62.0933C48.9868 62.0933 45.5743 63.7307 43.2862 66.5807C43.0715 66.847 42.7551 67 42.4162 67C42.1054 67 41.7551 66.8527 41.5404 66.592C39.1676 63.7534 35.693 62.1159 31.9981 62.0989C28.3032 62.1159 24.8286 63.7534 22.4557 66.592C22.241 66.8527 21.9077 67 21.58 67C21.241 67 20.9246 66.8414 20.7099 66.5751C18.4162 63.7251 15.0094 62.0876 11.3597 62.0876C7.70994 62.0876 4.29751 63.7251 2.00937 66.5751C1.61954 67.0623 0.90768 67.1417 0.421804 66.745C-0.0640718 66.3541 -0.143168 65.6402 0.252312 65.1529C2.97548 61.7647 7.02632 59.8212 11.3653 59.8212C15.2636 59.8212 18.9303 61.3907 21.6139 64.167C24.3597 61.4134 28.0772 59.8439 31.9981 59.8326H32.0037C35.9246 59.8496 39.6421 61.4134 42.3879 64.167C45.0659 61.3907 48.7325 59.8212 52.6365 59.8212C56.9755 59.8212 61.0263 61.7647 63.7495 65.1529C64.1393 65.6402 64.0659 66.3541 63.58 66.745C63.371 66.915 63.1224 66.9943 62.8738 66.9943L62.8681 67ZM52.5348 59.1186C48.2749 59.1186 44.8116 55.6454 44.8116 51.3733C44.8116 47.1011 48.2749 43.6279 52.5348 43.6279C56.7947 43.6279 60.258 47.1011 60.258 51.3733C60.258 55.6454 56.7947 59.1186 52.5348 59.1186ZM52.5348 45.8886C49.5235 45.8886 47.0715 48.3477 47.0715 51.3676C47.0715 54.3876 49.5235 56.8466 52.5348 56.8466C55.5461 56.8466 57.9981 54.3876 57.9981 51.3676C57.9981 48.3477 55.5461 45.8886 52.5348 45.8886ZM32.2523 59.1186C27.9924 59.1186 24.5291 55.6454 24.5291 51.3733C24.5291 47.1011 27.9924 43.6279 32.2523 43.6279C36.5122 43.6279 39.9755 47.1011 39.9755 51.3733C39.9755 55.6454 36.5122 59.1186 32.2523 59.1186ZM32.2523 45.8886C29.241 45.8886 26.789 48.3477 26.789 51.3676C26.789 54.3876 29.241 56.8466 32.2523 56.8466C35.2636 56.8466 37.7156 54.3876 37.7156 51.3676C37.7156 48.3477 35.2636 45.8886 32.2523 45.8886ZM11.5066 59.1186C7.24666 59.1186 3.78339 55.6454 3.78339 51.3733C3.78339 47.1011 7.24666 43.6279 11.5066 43.6279C15.7664 43.6279 19.2297 47.1011 19.2297 51.3733C19.2297 55.6454 15.7664 59.1186 11.5066 59.1186ZM11.5066 45.8886C8.49525 45.8886 6.04327 48.3477 6.04327 51.3676C6.04327 54.3876 8.49525 56.8466 11.5066 56.8466C14.5178 56.8466 16.9698 54.3876 16.9698 51.3676C16.9698 48.3477 14.5178 45.8886 11.5066 45.8886ZM39.8342 41.6165C39.8342 41.6165 39.7777 41.6165 39.7551 41.6165C39.1337 41.5712 38.6647 41.0329 38.7099 40.404L39.2184 33.2252H21.9981L22.5009 40.319C22.5461 40.9422 22.0772 41.4862 21.4557 41.5315C20.8342 41.5712 20.2919 41.1066 20.2467 40.4833L19.7325 33.2309H17.9811C17.3597 33.2309 16.8512 32.7209 16.8512 32.0977C16.8512 31.4744 17.3597 30.9645 17.9811 30.9645H43.2354C43.8568 30.9645 44.3653 31.4744 44.3653 32.0977C44.3653 32.7209 43.8568 33.2309 43.2354 33.2309H41.4839L40.9642 40.5683C40.9246 41.1632 40.4274 41.6222 39.8399 41.6222L39.8342 41.6165ZM30.5969 41.0272C29.5856 41.0272 28.7664 40.2057 28.7664 39.1915C28.7664 38.1772 29.5856 37.3557 30.5969 37.3557C31.6082 37.3557 32.4275 38.1772 32.4275 39.1915C32.4275 40.2057 31.6082 41.0272 30.5969 41.0272ZM30.5969 38.7608C30.3597 38.7608 30.1676 38.9535 30.1676 39.1915C30.1676 39.4294 30.3597 39.6221 30.5969 39.6221C30.8342 39.6221 31.0263 39.4294 31.0263 39.1915C31.0263 38.9535 30.8342 38.7608 30.5969 38.7608ZM40.0489 27.7009C39.5574 27.7009 39.1054 27.3779 38.9642 26.8793C37.9133 23.1681 34.4953 20.5618 30.6534 20.5448C26.789 20.5221 23.3597 23.0888 22.2693 26.7887C22.0941 27.3893 21.4614 27.7292 20.8625 27.5536C20.2636 27.3779 19.9246 26.7433 20.0998 26.1427C21.467 21.5023 25.7834 18.2784 30.6026 18.2784C30.6252 18.2784 30.6421 18.2784 30.6591 18.2784C35.5009 18.3067 39.8116 21.5873 41.1337 26.2617C41.3032 26.8623 40.9585 27.4912 40.354 27.6612C40.2523 27.6896 40.145 27.7066 40.0433 27.7066L40.0489 27.7009ZM30.6082 17.7458C25.7269 17.7458 21.7608 13.7683 21.7608 8.8729C21.7608 3.97751 25.7269 0 30.6082 0C35.4896 0 39.4557 3.97751 39.4557 8.8729C39.4557 13.7683 35.4896 17.7458 30.6082 17.7458ZM30.6082 2.26638C26.9755 2.26638 24.0207 5.22968 24.0207 8.8729C24.0207 12.5161 26.9755 15.4794 30.6082 15.4794C34.241 15.4794 37.1958 12.5161 37.1958 8.8729C37.1958 5.22968 34.241 2.26638 30.6082 2.26638Z" fill="#01D183"/>
</svg>
